<svg version="1.1" viewBox="0.0 0.0 1690.0 310.0" fill="none" stroke="none" stroke-linecap="square" stroke-miterlimit="10" xmlns:xlink="http://www.w3.org/1999/xlink" xmlns="http://www.w3.org/2000/svg"><clipPath id="p.0"><path d="m0 0l1690.0 0l0 310.0l-1690.0 0l0 -310.0z" clip-rule="nonzero"/></clipPath><g clip-path="url(#p.0)"><path fill="#000000" fill-opacity="0.0" d="m0 0l1690.0 0l0 310.0l-1690.0 0z" fill-rule="evenodd"/><g filter="url(#shadowFilter-p.1)"><use xlink:href="#p.1" transform="matrix(1.0 0.0 0.0 1.0 0.0 12.0)"/></g><defs><filter id="shadowFilter-p.1" filterUnits="userSpaceOnUse"><feGaussianBlur in="SourceAlpha" stdDeviation="30.0" result="blur"/><feComponentTransfer in="blur" color-interpolation-filters="sRGB"><feFuncR type="linear" slope="0" intercept="0.28235295"/><feFuncG type="linear" slope="0" intercept="0.28235295"/><feFuncB type="linear" slope="0" intercept="0.28235295"/><feFuncA type="linear" slope="0.4" intercept="0"/></feComponentTransfer></filter></defs><g id="p.1"><path fill="#000000" fill-opacity="0.0" d="m-44.16 120.0l1768.819 0l0 92.0l-1768.819 0z" fill-rule="evenodd"/><path fill="#ffb6c1" d="m11.917759 184.30002l0 -181.29688l29.71875 0l0 181.29688l-29.71875 0zm69.18712 -153.42188l0 -27.25l29.71875 0l0 27.25l-29.71875 0zm0 153.42188l0 -133.1875l29.71875 0l0 133.1875l-29.71875 0zm118.14024 3.703125q-24.65625 0 -40.078125 -11.09375q-15.40625 -11.109375 -18.75 -31.21875l30.34375 -4.671875q2.34375 9.859375 10.359375 15.53125q8.015625 5.671875 20.234375 5.671875q10.71875 0 16.578125 -4.25q5.859375 -4.25 5.859375 -11.65625q0 -4.5625 -2.15625 -7.328125q-2.15625 -2.78125 -9.4375 -5.375q-7.28125 -2.59375 -22.3125 -6.53125q-16.78125 -4.453125 -26.65625 -9.5625q-9.859375 -5.125 -14.171875 -12.140625q-4.3125 -7.03125 -4.3125 -17.03125q0 -12.453125 6.53125 -21.703125q6.53125 -9.25 18.25 -14.234375q11.71875 -5.0 27.625 -5.0q15.546875 0 27.5625 4.8125q12.03125 4.796875 19.421875 13.6875q7.40625 8.875 9.140625 20.84375l-30.34375 5.421875q-1.109375 -8.515625 -7.71875 -13.4375q-6.59375 -4.9375 -17.5625 -5.5625q-10.484375 -0.609375 -16.90625 3.15625q-6.40625 3.75 -6.40625 10.546875q0 3.8125 2.59375 6.53125q2.59375 2.71875 10.421875 5.4375q7.828125 2.703125 23.359375 6.640625q15.921875 4.078125 25.46875 9.328125q9.5625 5.234375 13.8125 12.515625q4.265625 7.265625 4.265625 17.625q0 20.109375 -14.625 31.578125q-14.609375 11.46875 -40.390625 11.46875zm160.20508 -3.703125q-13.1875 2.46875 -25.828125 2.15625q-12.640625 -0.3125 -22.640625 -4.6875q-9.984375 -4.375 -15.15625 -13.875q-4.578125 -8.625 -4.828125 -17.625q-0.234375 -9.015625 -0.234375 -20.359375l0 -115.796875l29.59375 0l0 114.078125q0 8.015625 0.1875 14.0625q0.1875 6.03125 2.53125 9.859375q4.4375 7.40625 14.171875 8.265625q9.75 0.859375 22.203125 -0.984375l0 24.90625zm-92.859375 -109.890625l0 -23.296875l92.859375 0l0 23.296875l-92.859375 0zm175.36264 113.59375q-20.21875 0 -35.515625 -8.75q-15.28125 -8.765625 -23.859375 -24.296875q-8.578125 -15.546875 -8.578125 -35.78125q0 -21.828125 8.390625 -37.921875q8.390625 -16.09375 23.3125 -24.96875q14.921875 -8.875 34.53125 -8.875q20.71875 0 35.203125 9.6875q14.5 9.671875 21.53125 27.3125q7.03125 17.625 5.296875 41.5625l-29.46875 0l0 -10.859375q-0.125 -21.703125 -7.65625 -31.6875q-7.515625 -10.0 -23.671875 -10.0q-18.25 0 -27.140625 11.296875q-8.875 11.28125 -8.875 32.984375q0 20.21875 8.875 31.328125q8.890625 11.09375 25.90625 11.09375q10.96875 0 18.921875 -4.875q7.96875 -4.875 12.28125 -14.125l29.34375 8.890625q-7.640625 18.0 -23.609375 28.0q-15.96875 9.984375 -35.21875 9.984375zm-45.875 -62.03125l0 -22.453125l91.640625 0l0 22.453125l-91.640625 0zm222.24033 58.328125l0 -64.125q0 -6.296875 -0.859375 -13.9375q-0.859375 -7.65625 -4.015625 -14.734375q-3.140625 -7.09375 -9.375 -11.65625q-6.21875 -4.5625 -16.828125 -4.5625q-5.671875 0 -11.21875 1.84375q-5.546875 1.84375 -10.0625 6.359375q-4.5 4.5 -7.21875 12.328125q-2.703125 7.828125 -2.703125 20.03125l-17.640625 -7.515625q0 -17.015625 6.59375 -30.828125q6.609375 -13.8125 19.4375 -22.015625q12.828125 -8.203125 31.5625 -8.203125q14.8125 0 24.421875 4.9375q9.625 4.921875 15.296875 12.578125q5.671875 7.640625 8.375 16.28125q2.71875 8.625 3.515625 16.34375q0.8125 7.703125 0.8125 12.515625l0 74.359375l-30.09375 0zm-92.375 0l0 -133.1875l26.515625 0l0 41.3125l3.578125 0l0 91.875l-30.09375 0zm191.78357 3.703125q-14.4375 0 -24.421875 -5.484375q-9.984375 -5.5 -15.109375 -14.625q-5.125 -9.125 -5.125 -20.09375q0 -9.625 3.203125 -17.328125q3.21875 -7.71875 9.875 -13.328125q6.65625 -5.609375 17.265625 -9.1875q8.015625 -2.59375 18.796875 -4.6875q10.796875 -2.09375 23.4375 -3.875q12.65625 -1.796875 26.46875 -3.890625l-10.609375 6.046875q0.125 -13.8125 -6.171875 -20.34375q-6.28125 -6.546875 -21.21875 -6.546875q-9.0 0 -17.390625 4.203125q-8.375 4.1875 -11.703125 14.421875l-27.140625 -8.515625q4.9375 -16.890625 18.8125 -27.125q13.875 -10.234375 37.421875 -10.234375q17.765625 0 31.265625 5.796875q13.515625 5.796875 20.046875 18.984375q3.578125 7.03125 4.3125 14.375q0.75 7.328125 0.75 15.96875l0 81.765625l-26.03125 0l0 -28.859375l4.3125 4.6875q-9.0 14.421875 -21.03125 21.15625q-12.015625 6.71875 -30.015625 6.71875zm5.921875 -23.6875q10.109375 0 17.25 -3.5625q7.15625 -3.578125 11.40625 -8.75q4.265625 -5.1875 5.75 -9.765625q2.34375 -5.671875 2.640625 -13.0q0.3125 -7.34375 0.3125 -11.90625l9.125 2.71875q-13.4375 2.09375 -23.0625 3.703125q-9.609375 1.59375 -16.515625 3.015625q-6.90625 1.421875 -12.21875 3.140625q-5.171875 1.859375 -8.75 4.328125q-3.578125 2.453125 -5.5 5.671875q-1.90625 3.203125 -1.90625 7.515625q0 4.9375 2.46875 8.703125q2.46875 3.75 7.21875 5.96875q4.75 2.21875 11.78125 2.21875zm152.30847 23.6875q-18.375 0 -32.078125 -9.25q-13.6875 -9.25 -21.21875 -25.15625q-7.515625 -15.921875 -7.515625 -35.890625q0 -20.234375 7.578125 -36.078125q7.59375 -15.84375 21.53125 -25.03125q13.9375 -9.1875 32.8125 -9.1875q18.984375 0 31.875 9.1875q12.890625 9.1875 19.546875 25.09375q6.65625 15.90625 6.65625 36.015625q0 19.859375 -6.65625 35.828125q-6.65625 15.96875 -19.859375 25.21875q-13.1875 9.25 -32.671875 9.25zm4.5625 -26.640625q11.953125 0 19.296875 -5.484375q7.34375 -5.5 10.734375 -15.359375q3.390625 -9.859375 3.390625 -22.8125q0 -13.078125 -3.390625 -22.875q-3.390625 -9.8125 -10.546875 -15.296875q-7.15625 -5.484375 -18.5 -5.484375q-11.96875 0 -19.734375 5.859375q-7.765625 5.84375 -11.46875 15.78125q-3.703125 9.921875 -3.703125 22.015625q0 12.203125 3.640625 22.140625q3.640625 9.921875 11.15625 15.71875q7.53125 5.796875 19.125 5.796875zm33.421875 22.9375l0 -93.484375l-3.703125 0l0 -84.109375l29.96875 0l0 177.59375l-26.265625 0zm121.3432 3.703125q-20.218689 0 -35.515564 -8.75q-15.28125 -8.765625 -23.859375 -24.296875q-8.578125 -15.546875 -8.578125 -35.78125q0 -21.828125 8.390625 -37.921875q8.390625 -16.09375 23.3125 -24.96875q14.921875 -8.875 34.53119 -8.875q20.71875 0 35.203125 9.6875q14.5 9.671875 21.53125 27.3125q7.03125 17.625 5.296875 41.5625l-29.46875 0l0 -10.859375q-0.125 -21.703125 -7.65625 -31.6875q-7.515625 -10.0 -23.671875 -10.0q-18.249939 0 -27.140564 11.296875q-8.875 11.28125 -8.875 32.984375q0 20.21875 8.875 31.328125q8.890625 11.09375 25.906189 11.09375q10.96875 0 18.921875 -4.875q7.96875 -4.875 12.28125 -14.125l29.34375 8.890625q-7.640625 18.0 -23.609375 28.0q-15.96875 9.984375 -35.21875 9.984375zm-45.87494 -62.03125l0 -22.453125l91.640564 0l0 22.453125l-91.640564 0zm133.8194 58.328125l0 -30.46875l30.453125 0l0 30.46875l-30.453125 0zm127.76648 3.703125q-20.59375 0 -35.15625 -9.1875q-14.546875 -9.1875 -22.265625 -25.09375q-7.703125 -15.921875 -7.828125 -36.015625q0.125 -20.46875 8.078125 -36.3125q7.96875 -15.859375 22.640625 -24.921875q14.671875 -9.0625 34.90625 -9.0625q22.6875 0 38.40625 11.40625q15.734375 11.40625 20.53125 31.140625l-29.59375 8.015625q-3.453125 -10.734375 -11.46875 -16.703125q-8.015625 -5.984375 -18.25 -5.984375q-11.59375 0 -19.125 5.484375q-7.515625 5.484375 -11.09375 15.109375q-3.578125 9.609375 -3.578125 21.828125q0 18.984375 8.5 30.703125q8.515625 11.71875 25.296875 11.71875q11.84375 0 18.6875 -5.421875q6.84375 -5.4375 10.296875 -15.671875l30.328125 6.78125q-6.15625 20.359375 -21.578125 31.28125q-15.421875 10.90625 -37.734375 10.90625zm139.2351 0q-19.984375 0 -34.90625 -9.0q-14.921875 -9.015625 -23.125 -24.859375q-8.203125 -15.84375 -8.203125 -36.4375q0 -20.96875 8.390625 -36.75q8.390625 -15.796875 23.3125 -24.671875q14.921875 -8.875 34.53125 -8.875q20.109375 0 35.03125 9.0q14.921875 9.0 23.171875 24.859375q8.265625 15.84375 8.265625 36.4375q0 20.71875 -8.328125 36.5625q-8.3125 15.84375 -23.234375 24.796875q-14.921875 8.9375 -34.90625 8.9375zm0 -27.875q17.765625 0 26.390625 -11.828125q8.640625 -11.84375 8.640625 -30.59375q0 -19.359375 -8.765625 -30.890625q-8.75 -11.53125 -26.265625 -11.53125q-11.96875 0 -19.671875 5.359375q-7.703125 5.359375 -11.40625 14.921875q-3.703125 9.5625 -3.703125 22.140625q0 19.359375 8.8125 30.890625q8.828125 11.53125 25.96875 11.53125zm253.55872 24.171875l0 -80.90625q0 -13.6875 -6.78125 -21.390625q-6.78125 -7.71875 -18.375 -7.71875q-7.15625 0 -12.828125 3.28125q-5.671875 3.265625 -9.0 9.625q-3.328125 6.34375 -3.328125 15.09375l-13.203125 -7.765625q-0.125 -13.8125 6.21875 -24.359375q6.359375 -10.546875 17.21875 -16.46875q10.859375 -5.921875 24.171875 -5.921875q22.078125 0 33.84375 13.265625q11.78125 13.25 11.78125 34.84375l0 88.421875l-29.71875 0zm-160.20312 0l0 -133.1875l26.265625 0l0 41.3125l3.703125 0l0 91.875l-29.96875 0zm80.296875 0l0 -80.53125q0 -13.9375 -6.796875 -21.703125q-6.78125 -7.78125 -18.484375 -7.78125q-11.359375 0 -18.203125 7.78125q-6.84375 7.765625 -6.84375 20.21875l-13.3125 -8.875q0 -12.953125 6.40625 -23.3125q6.421875 -10.359375 17.328125 -16.34375q10.921875 -5.984375 24.484375 -5.984375q14.921875 0 24.96875 6.359375q10.0625 6.34375 15.046875 17.265625q5.0 10.90625 5.0 24.609375l0 88.296875l-29.59375 0z" fill-rule="nonzero"/><path fill="#ffb6c1" d="m26.461155 305.98l-22.328125 -77.28125l8.21875 0l18.078125 63.8125l17.984375 -63.75l8.265625 -0.0625l18.078121 63.8125l17.984375 -63.8125l8.265625 0l-22.28125 77.28125l-7.9375 0l-18.249996 -63.375l-18.140625 63.375l-7.9375 0zm83.82716 0l0 -77.28125l7.890625 0l0 34.828125l42.71875 0l0 -34.828125l7.828125 0l0 77.28125l-7.828125 0l0 -34.875l-42.71875 0l0 34.875l-7.890625 0zm73.46597 0l0 -77.28125l48.29689 0l0 7.578125l-40.406265 0l0 26.71875l33.968765 0l0 7.5625l-33.968765 0l0 27.859375l40.406265 0l0 7.5625l-48.29689 0zm61.176926 0l0 -77.28125l7.9375 0l42.5625 63.328125l0 -63.328125l7.9375 0l0 77.28125l-7.9375 0l-42.5625 -63.375l0 63.375l-7.9375 0zm160.4064 0l0 -77.28125l7.875 0l0 69.71875l36.71875 0l0 7.5625l-44.59375 0zm54.790894 0l0 -77.28125l7.875 0l0 77.28125l-7.875 0zm23.982971 0l0 -77.28125l44.37503 0l0 7.890625l-36.484406 0l0 26.828125l30.046906 0l0 7.84375l-30.046906 0l0 34.71875l-7.890625 0zm54.039642 0l0 -77.28125l48.296875 0l0 7.578125l-40.40625 0l0 26.71875l33.96875 0l0 7.5625l-33.96875 0l0 27.859375l40.40625 0l0 7.5625l-48.296875 0zm178.008 1.609375q-8.171875 0 -14.71875 -2.84375q-6.546875 -2.84375 -11.140625 -8.09375q-4.578125 -5.265625 -7.0 -12.703125q-2.40625 -7.4375 -2.40625 -16.609375q0 -12.125 4.203125 -21.15625q4.21875 -9.046875 12.109375 -14.03125q7.890625 -5.0 18.953125 -5.0q12.328125 0 20.078125 5.765625q7.765625 5.765625 10.828125 15.484375l-7.953125 1.921875q-2.515625 -7.078125 -8.28125 -11.3125q-5.765625 -4.25 -14.359375 -4.25q-9.0625 -0.046875 -15.078125 4.0625q-6.015625 4.09375 -9.046875 11.484375q-3.03125 7.375 -3.078125 17.03125q-0.0625 9.65625 2.96875 16.984375q3.046875 7.328125 9.109375 11.484375q6.0625 4.15625 15.125 4.21875q8.3125 0 13.734375 -3.21875q5.421875 -3.21875 8.234375 -9.234375q2.828125 -6.015625 3.203125 -14.21875l-17.8125 0l0 -6.765625l26.078125 0q0.15625 1.234375 0.1875 2.609375q0.03125 1.359375 0.03125 1.953125q0 10.46875 -3.765625 18.703125q-3.75 8.234375 -11.296875 12.984375q-7.53125 4.75 -18.90625 4.75zm45.775574 -1.609375l0 -77.28125l7.875 0l0 77.28125l-7.875 0zm43.623596 0l-26.625 -77.28125l8.21875 0l23.5625 68.3125l23.71875 -68.3125l8.203125 0l-26.609375 77.28125l-10.46875 0zm45.131775 0l0 -77.28125l48.296875 0l0 7.578125l-40.40625 0l0 26.71875l33.96875 0l0 7.5625l-33.96875 0l0 27.859375l40.40625 0l0 7.5625l-48.296875 0zm85.160706 1.609375q-8.109375 0 -14.578125 -2.703125q-6.453125 -2.71875 -10.671875 -7.703125q-4.203125 -5.0 -5.5 -11.859375l8.046875 -1.34375q1.9375 7.515625 8.15625 11.78125q6.234375 4.265625 14.875 4.265625q5.6875 0 10.1875 -1.796875q4.515625 -1.796875 7.078125 -5.125q2.578125 -3.328125 2.578125 -7.890625q0 -3.0 -1.078125 -5.125q-1.0625 -2.125 -2.84375 -3.515625q-1.765625 -1.390625 -3.859375 -2.328125q-2.09375 -0.953125 -4.078125 -1.53125l-19.578125 -5.859375q-3.546875 -1.015625 -6.5625 -2.59375q-3.0 -1.59375 -5.234375 -3.8125q-2.21875 -2.234375 -3.453125 -5.234375q-1.234375 -3.0 -1.234375 -6.875q0 -6.546875 3.4375 -11.3125q3.4375 -4.78125 9.390625 -7.359375q5.96875 -2.578125 13.578125 -2.515625q7.734375 0 13.8125 2.734375q6.09375 2.734375 10.0625 7.8125q3.984375 5.0625 5.265625 11.984375l-8.265625 1.5q-0.796875 -5.03125 -3.703125 -8.734375q-2.890625 -3.703125 -7.375 -5.71875q-4.484375 -2.015625 -9.84375 -2.0625q-5.203125 0 -9.265625 1.75q-4.046875 1.734375 -6.40625 4.734375q-2.359375 3.0 -2.359375 6.875q0 3.90625 2.171875 6.28125q2.171875 2.359375 5.359375 3.703125q3.203125 1.328125 6.203125 2.1875l15.140625 4.453125q2.359375 0.65625 5.546875 1.859375q3.1875 1.203125 6.21875 3.4375q3.03125 2.21875 5.015625 5.8125q2.0 3.59375 2.0 9.125q0 5.375 -2.125 9.609375q-2.125 4.234375 -5.96875 7.140625q-3.828125 2.890625 -8.953125 4.421875q-5.125 1.53125 -11.1875 1.53125zm143.6081 -1.609375l0 -32.359375l-25.921875 -44.921875l9.125 0l20.765625 35.90625l20.65625 -35.90625l9.125 0l-25.8125 44.921875l0 32.359375l-7.9375 0zm68.25586 1.609375q-11.53125 0 -19.484375 -5.125q-7.9375 -5.125 -12.015625 -14.1875q-4.078125 -9.078125 -4.078125 -20.9375q0 -11.859375 4.078125 -20.921875q4.078125 -9.078125 12.015625 -14.203125q7.953125 -5.125 19.484375 -5.125q11.59375 0 19.5 5.125q7.921875 5.125 12.03125 14.203125q4.109375 9.0625 4.109375 20.921875q0 11.859375 -4.109375 20.9375q-4.109375 9.0625 -12.03125 14.1875q-7.90625 5.125 -19.5 5.125zm0 -7.5625q9.078125 0 15.140625 -4.125q6.0625 -4.140625 9.09375 -11.515625q3.03125 -7.390625 3.03125 -17.046875q0 -9.65625 -3.03125 -17.0q-3.03125 -7.359375 -9.09375 -11.484375q-6.0625 -4.140625 -15.140625 -4.1875q-9.0625 0 -15.078125 4.125q-6.015625 4.125 -9.046875 11.515625q-3.03125 7.375 -3.078125 17.03125q-0.0625 9.65625 2.96875 16.984375q3.046875 7.328125 9.109375 11.484375q6.0625 4.15625 15.125 4.21875zm76.526855 7.5625q-8.859375 0 -15.65625 -3.640625q-6.78125 -3.65625 -10.640625 -10.3125q-3.859375 -6.65625 -3.859375 -15.5625l0 -49.3125l7.9375 -0.0625l0 48.359375q0 6.0 2.03125 10.375q2.046875 4.375 5.34375 7.203125q3.3125 2.8125 7.21875 4.15625q3.921875 1.34375 7.625 1.34375q3.75 0 7.671875 -1.34375q3.921875 -1.34375 7.1875 -4.15625q3.28125 -2.828125 5.3125 -7.203125q2.046875 -4.375 2.046875 -10.375l0 -48.359375l7.9375 0l0 49.375q0 8.90625 -3.859375 15.546875q-3.859375 6.625 -10.65625 10.296875q-6.78125 3.671875 -15.640625 3.671875zm131.0503 -1.609375l0 -77.28125l7.234375 0l30.375 65.0l30.21875 -65.0l7.359375 0l0 77.234375l-7.515625 0l0 -59.625l-27.53125 59.671875l-5.09375 0l-27.484375 -59.671875l0 59.671875l-7.5625 0zm120.365234 1.609375q-8.859375 0 -15.65625 -3.640625q-6.78125 -3.65625 -10.640625 -10.3125q-3.859375 -6.65625 -3.859375 -15.5625l0 -49.3125l7.9375 -0.0625l0 48.359375q0 6.0 2.03125 10.375q2.046875 4.375 5.34375 7.203125q3.3125 2.8125 7.21875 4.15625q3.921875 1.34375 7.625 1.34375q3.75 0 7.671875 -1.34375q3.921875 -1.34375 7.1875 -4.15625q3.28125 -2.828125 5.3125 -7.203125q2.046875 -4.375 2.046875 -10.375l0 -48.359375l7.9375 0l0 49.375q0 8.90625 -3.859375 15.546875q-3.859375 6.625 -10.65625 10.296875q-6.78125 3.671875 -15.640625 3.671875zm68.79614 0q-8.109375 0 -14.578125 -2.703125q-6.453125 -2.71875 -10.671875 -7.703125q-4.203125 -5.0 -5.5 -11.859375l8.046875 -1.34375q1.9375 7.515625 8.15625 11.78125q6.234375 4.265625 14.875 4.265625q5.6875 0 10.1875 -1.796875q4.515625 -1.796875 7.078125 -5.125q2.578125 -3.328125 2.578125 -7.890625q0 -3.0 -1.078125 -5.125q-1.0625 -2.125 -2.84375 -3.515625q-1.765625 -1.390625 -3.859375 -2.328125q-2.09375 -0.953125 -4.078125 -1.53125l-19.578125 -5.859375q-3.546875 -1.015625 -6.5625 -2.59375q-3.0 -1.59375 -5.234375 -3.8125q-2.21875 -2.234375 -3.453125 -5.234375q-1.234375 -3.0 -1.234375 -6.875q0 -6.546875 3.4375 -11.3125q3.4375 -4.78125 9.390625 -7.359375q5.96875 -2.578125 13.578125 -2.515625q7.734375 0 13.8125 2.734375q6.09375 2.734375 10.0625 7.8125q3.984375 5.0625 5.265625 11.984375l-8.265625 1.5q-0.796875 -5.03125 -3.703125 -8.734375q-2.890625 -3.703125 -7.375 -5.71875q-4.484375 -2.015625 -9.84375 -2.0625q-5.203125 0 -9.265625 1.75q-4.046875 1.734375 -6.40625 4.734375q-2.359375 3.0 -2.359375 6.875q0 3.90625 2.171875 6.28125q2.171875 2.359375 5.359375 3.703125q3.203125 1.328125 6.203125 2.1875l15.140625 4.453125q2.359375 0.65625 5.546875 1.859375q3.1875 1.203125 6.21875 3.4375q3.03125 2.21875 5.015625 5.8125q2.0 3.59375 2.0 9.125q0 5.375 -2.125 9.609375q-2.125 4.234375 -5.96875 7.140625q-3.828125 2.890625 -8.953125 4.421875q-5.125 1.53125 -11.1875 1.53125zm40.417725 -1.609375l0 -77.28125l7.875 0l0 77.28125l-7.875 0zm55.26416 1.609375q-11.53125 0 -19.484375 -5.125q-7.9375 -5.125 -12.015625 -14.1875q-4.078125 -9.078125 -4.078125 -20.9375q0 -11.859375 4.078125 -20.921875q4.078125 -9.078125 12.015625 -14.203125q7.953125 -5.125 19.484375 -5.125q13.46875 0 22.0 6.90625q8.53125 6.890625 11.703125 18.484375l-8.046875 2.09375q-2.46875 -9.1875 -8.859375 -14.546875q-6.390625 -5.359375 -16.796875 -5.359375q-9.0625 0 -15.078125 4.125q-6.015625 4.125 -9.046875 11.515625q-3.03125 7.375 -3.140625 17.03125q-0.046875 9.65625 2.984375 17.015625q3.03125 7.34375 9.125 11.515625q6.09375 4.15625 15.15625 4.15625q10.40625 0 16.796875 -5.390625q6.390625 -5.40625 8.859375 -14.515625l8.046875 2.09375q-3.171875 11.578125 -11.703125 18.484375q-8.53125 6.890625 -22.0 6.890625z" fill-rule="nonzero"/></g></g></svg>