<svg xmlns="http://www.w3.org/2000/svg" xmlns:xlink="http://www.w3.org/1999/xlink" stroke-miterlimit="10" stroke-linecap="square" stroke="none" fill="none" viewBox="0 0 1690 193.11475409836066" version="1.1" style="max-height: 500px" width="1690" height="193.11475409836066"><clipPath id="p.0"><path clip-rule="nonzero" d="m0 0l1690.0 0l0 310.0l-1690.0 0l0 -310.0z"/></clipPath><g clip-path="url(#p.0)"><path fill-rule="evenodd" d="m0 0l1690.0 0l0 310.0l-1690.0 0z" fill-opacity="0.0" fill="#000000"/><path fill-rule="evenodd" d="m-44.16 120.0l1768.819 0l0 92.0l-1768.819 0z" fill-opacity="0.0" fill="#000000"/><path fill-rule="nonzero" d="m9.451084 186.70001l0 -181.29688l29.71875 0l0 181.29688l-29.71875 0zm69.18712 -153.42188l0 -27.25l29.71875 0l0 27.25l-29.71875 0zm0 153.42188l0 -133.1875l29.71875 0l0 133.1875l-29.71875 0zm118.14024 3.703125q-24.65625 0 -40.078125 -11.09375q-15.40625 -11.109375 -18.75 -31.21875l30.34375 -4.671875q2.34375 9.859375 10.359375 15.53125q8.015625 5.671875 20.234375 5.671875q10.71875 0 16.578125 -4.25q5.859375 -4.25 5.859375 -11.65625q0 -4.5625 -2.15625 -7.328125q-2.15625 -2.78125 -9.4375 -5.375q-7.28125 -2.59375 -22.3125 -6.53125q-16.78125 -4.453125 -26.65625 -9.5625q-9.859375 -5.125 -14.171875 -12.140625q-4.3125 -7.03125 -4.3125 -17.03125q0 -12.453125 6.53125 -21.703125q6.53125 -9.25 18.25 -14.234375q11.71875 -5.0 27.625 -5.0q15.546875 0 27.5625 4.8125q12.03125 4.796875 19.421875 13.6875q7.40625 8.875 9.140625 20.84375l-30.34375 5.421875q-1.109375 -8.515625 -7.71875 -13.4375q-6.59375 -4.9375 -17.5625 -5.5625q-10.484375 -0.609375 -16.90625 3.15625q-6.40625 3.75 -6.40625 10.546875q0 3.8125 2.59375 6.53125q2.59375 2.71875 10.421875 5.4375q7.828125 2.703125 23.359375 6.640625q15.921875 4.078125 25.46875 9.328125q9.5625 5.234375 13.8125 12.515625q4.265625 7.265625 4.265625 17.625q0 20.109375 -14.625 31.578125q-14.609375 11.46875 -40.390625 11.46875zm160.20508 -3.703125q-13.1875 2.46875 -25.828125 2.15625q-12.640625 -0.3125 -22.640625 -4.6875q-9.984375 -4.375 -15.15625 -13.875q-4.578125 -8.625 -4.828125 -17.625q-0.234375 -9.015625 -0.234375 -20.359375l0 -115.796875l29.59375 0l0 114.078125q0 8.015625 0.1875 14.0625q0.1875 6.03125 2.53125 9.859375q4.4375 7.40625 14.171875 8.265625q9.75 0.859375 22.203125 -0.984375l0 24.90625zm-92.859375 -109.890625l0 -23.296875l92.859375 0l0 23.296875l-92.859375 0zm175.36264 113.59375q-20.21875 0 -35.515625 -8.75q-15.28125 -8.765625 -23.859375 -24.296875q-8.578125 -15.546875 -8.578125 -35.78125q0 -21.828125 8.390625 -37.921875q8.390625 -16.09375 23.3125 -24.96875q14.921875 -8.875 34.53125 -8.875q20.71875 0 35.203125 9.6875q14.5 9.671875 21.53125 27.3125q7.03125 17.625 5.296875 41.5625l-29.46875 0l0 -10.859375q-0.125 -21.703125 -7.65625 -31.6875q-7.515625 -10.0 -23.671875 -10.0q-18.25 0 -27.140625 11.296875q-8.875 11.28125 -8.875 32.984375q0 20.21875 8.875 31.328125q8.890625 11.09375 25.90625 11.09375q10.96875 0 18.921875 -4.875q7.96875 -4.875 12.28125 -14.125l29.34375 8.890625q-7.640625 18.0 -23.609375 28.0q-15.96875 9.984375 -35.21875 9.984375zm-45.875 -62.03125l0 -22.453125l91.640625 0l0 22.453125l-91.640625 0zm222.24033 58.328125l0 -64.125q0 -6.296875 -0.859375 -13.9375q-0.859375 -7.65625 -4.015625 -14.734375q-3.140625 -7.09375 -9.375 -11.65625q-6.21875 -4.5625 -16.828125 -4.5625q-5.671875 0 -11.21875 1.84375q-5.546875 1.84375 -10.0625 6.359375q-4.5 4.5 -7.21875 12.328125q-2.703125 7.828125 -2.703125 20.03125l-17.640625 -7.515625q0 -17.015625 6.59375 -30.828125q6.609375 -13.8125 19.4375 -22.015625q12.828125 -8.203125 31.5625 -8.203125q14.8125 0 24.421875 4.9375q9.625 4.921875 15.296875 12.578125q5.671875 7.640625 8.375 16.28125q2.71875 8.625 3.515625 16.34375q0.8125 7.703125 0.8125 12.515625l0 74.359375l-30.09375 0zm-92.375 0l0 -133.1875l26.515625 0l0 41.3125l3.578125 0l0 91.875l-30.09375 0zm191.78357 3.703125q-14.4375 0 -24.421875 -5.484375q-9.984375 -5.5 -15.109375 -14.625q-5.125 -9.125 -5.125 -20.09375q0 -9.625 3.203125 -17.328125q3.21875 -7.71875 9.875 -13.328125q6.65625 -5.609375 17.265625 -9.1875q8.015625 -2.59375 18.796875 -4.6875q10.796875 -2.09375 23.4375 -3.875q12.65625 -1.796875 26.46875 -3.890625l-10.609375 6.046875q0.125 -13.8125 -6.171875 -20.34375q-6.28125 -6.546875 -21.21875 -6.546875q-9.0 0 -17.390625 4.203125q-8.375 4.1875 -11.703125 14.421875l-27.140625 -8.515625q4.9375 -16.890625 18.8125 -27.125q13.875 -10.234375 37.421875 -10.234375q17.765625 0 31.265625 5.796875q13.515625 5.796875 20.046875 18.984375q3.578125 7.03125 4.3125 14.375q0.75 7.328125 0.75 15.96875l0 81.765625l-26.03125 0l0 -28.859375l4.3125 4.6875q-9.0 14.421875 -21.03125 21.15625q-12.015625 6.71875 -30.015625 6.71875zm5.921875 -23.6875q10.109375 0 17.25 -3.5625q7.15625 -3.578125 11.40625 -8.75q4.265625 -5.1875 5.75 -9.765625q2.34375 -5.671875 2.640625 -13.0q0.3125 -7.34375 0.3125 -11.90625l9.125 2.71875q-13.4375 2.09375 -23.0625 3.703125q-9.609375 1.59375 -16.515625 3.015625q-6.90625 1.421875 -12.21875 3.140625q-5.171875 1.859375 -8.75 4.328125q-3.578125 2.453125 -5.5 5.671875q-1.90625 3.203125 -1.90625 7.515625q0 4.9375 2.46875 8.703125q2.46875 3.75 7.21875 5.96875q4.75 2.21875 11.78125 2.21875zm152.30847 23.6875q-18.375 0 -32.078125 -9.25q-13.6875 -9.25 -21.21875 -25.15625q-7.515625 -15.921875 -7.515625 -35.890625q0 -20.234375 7.578125 -36.078125q7.59375 -15.84375 21.53125 -25.03125q13.9375 -9.1875 32.8125 -9.1875q18.984375 0 31.875 9.1875q12.890625 9.1875 19.546875 25.09375q6.65625 15.90625 6.65625 36.015625q0 19.859375 -6.65625 35.828125q-6.65625 15.96875 -19.859375 25.21875q-13.1875 9.25 -32.671875 9.25zm4.5625 -26.640625q11.953125 0 19.296875 -5.484375q7.34375 -5.5 10.734375 -15.359375q3.390625 -9.859375 3.390625 -22.8125q0 -13.078125 -3.390625 -22.875q-3.390625 -9.8125 -10.546875 -15.296875q-7.15625 -5.484375 -18.5 -5.484375q-11.96875 0 -19.734375 5.859375q-7.765625 5.84375 -11.46875 15.78125q-3.703125 9.921875 -3.703125 22.015625q0 12.203125 3.640625 22.140625q3.640625 9.921875 11.15625 15.71875q7.53125 5.796875 19.125 5.796875zm33.421875 22.9375l0 -93.484375l-3.703125 0l0 -84.109375l29.96875 0l0 177.59375l-26.265625 0zm121.3432 3.703125q-20.218689 0 -35.515564 -8.75q-15.28125 -8.765625 -23.859375 -24.296875q-8.578125 -15.546875 -8.578125 -35.78125q0 -21.828125 8.390625 -37.921875q8.390625 -16.09375 23.3125 -24.96875q14.921875 -8.875 34.53119 -8.875q20.71875 0 35.203125 9.6875q14.5 9.671875 21.53125 27.3125q7.03125 17.625 5.296875 41.5625l-29.46875 0l0 -10.859375q-0.125 -21.703125 -7.65625 -31.6875q-7.515625 -10.0 -23.671875 -10.0q-18.249939 0 -27.140564 11.296875q-8.875 11.28125 -8.875 32.984375q0 20.21875 8.875 31.328125q8.890625 11.09375 25.906189 11.09375q10.96875 0 18.921875 -4.875q7.96875 -4.875 12.28125 -14.125l29.34375 8.890625q-7.640625 18.0 -23.609375 28.0q-15.96875 9.984375 -35.21875 9.984375zm-45.87494 -62.03125l0 -22.453125l91.640564 0l0 22.453125l-91.640564 0z" fill="#ffd966"/><path fill-rule="nonzero" d="m1125.6964 186.70001l0 -30.46875l30.453125 0l0 30.46875l-30.453125 0zm127.76648 3.703125q-20.59375 0 -35.15625 -9.1875q-14.546875 -9.1875 -22.265625 -25.09375q-7.703125 -15.921875 -7.828125 -36.015625q0.125 -20.46875 8.078125 -36.3125q7.96875 -15.859375 22.640625 -24.921875q14.671875 -9.0625 34.90625 -9.0625q22.6875 0 38.40625 11.40625q15.734375 11.40625 20.53125 31.140625l-29.59375 8.015625q-3.453125 -10.734375 -11.46875 -16.703125q-8.015625 -5.984375 -18.25 -5.984375q-11.59375 0 -19.125 5.484375q-7.515625 5.484375 -11.09375 15.109375q-3.578125 9.609375 -3.578125 21.828125q0 18.984375 8.5 30.703125q8.515625 11.71875 25.296875 11.71875q11.84375 0 18.6875 -5.421875q6.84375 -5.4375 10.296875 -15.671875l30.328125 6.78125q-6.15625 20.359375 -21.578125 31.28125q-15.421875 10.90625 -37.734375 10.90625zm139.2351 0q-19.984375 0 -34.90625 -9.0q-14.921875 -9.015625 -23.125 -24.859375q-8.203125 -15.84375 -8.203125 -36.4375q0 -20.96875 8.390625 -36.75q8.390625 -15.796875 23.3125 -24.671875q14.921875 -8.875 34.53125 -8.875q20.109375 0 35.03125 9.0q14.921875 9.0 23.171875 24.859375q8.265625 15.84375 8.265625 36.4375q0 20.71875 -8.328125 36.5625q-8.3125 15.84375 -23.234375 24.796875q-14.921875 8.9375 -34.90625 8.9375zm0 -27.875q17.765625 0 26.390625 -11.828125q8.640625 -11.84375 8.640625 -30.59375q0 -19.359375 -8.765625 -30.890625q-8.75 -11.53125 -26.265625 -11.53125q-11.96875 0 -19.671875 5.359375q-7.703125 5.359375 -11.40625 14.921875q-3.703125 9.5625 -3.703125 22.140625q0 19.359375 8.8125 30.890625q8.828125 11.53125 25.96875 11.53125zm253.55872 24.171875l0 -80.90625q0 -13.6875 -6.78125 -21.390625q-6.78125 -7.71875 -18.375 -7.71875q-7.15625 0 -12.828125 3.28125q-5.671875 3.265625 -9.0 9.625q-3.328125 6.34375 -3.328125 15.09375l-13.203125 -7.765625q-0.125 -13.8125 6.21875 -24.359375q6.359375 -10.546875 17.21875 -16.46875q10.859375 -5.921875 24.171875 -5.921875q22.078125 0 33.84375 13.265625q11.78125 13.25 11.78125 34.84375l0 88.421875l-29.71875 0zm-160.20312 0l0 -133.1875l26.265625 0l0 41.3125l3.703125 0l0 91.875l-29.96875 0zm80.296875 0l0 -80.53125q0 -13.9375 -6.796875 -21.703125q-6.78125 -7.78125 -18.484375 -7.78125q-11.359375 0 -18.203125 7.78125q-6.84375 7.765625 -6.84375 20.21875l-13.3125 -8.875q0 -12.953125 6.40625 -23.3125q6.421875 -10.359375 17.328125 -16.34375q10.921875 -5.984375 24.484375 -5.984375q14.921875 0 24.96875 6.359375q10.0625 6.34375 15.046875 17.265625q5.0 10.90625 5.0 24.609375l0 88.296875l-29.59375 0z" fill="#ffb6c1"/><path fill-rule="nonzero" d="m30.228855 304.54l-21.265625 -73.4375l9.484375 0l16.328125 58.09375l16.265625 -58.046875l9.53125 -0.046875l16.328121 58.09375l16.265625 -58.09375l9.53125 0l-21.265625 73.4375l-9.078125 0l-16.515621 -57.578125l-16.53125 57.578125l-9.078125 0zm81.14197 0l0 -73.4375l9.078125 0l0 32.375l38.65625 0l0 -32.375l9.078125 0l0 73.4375l-9.078125 0l0 -32.4375l-38.65625 0l0 32.4375l-9.078125 0zm71.09416 0l0 -73.4375l46.406265 0l0 8.609375l-37.32814 0l0 23.015625l31.218765 0l0 8.609375l-31.218765 0l0 24.578125l37.32814 0l0 8.625l-46.406265 0zm58.65013 0l0 -73.4375l9.171875 0l38.3125 57.375l0 -57.375l9.171875 0l0 73.4375l-9.171875 0l-38.3125 -57.421875l0 57.421875l-9.171875 0zm153.557 0l0 -73.4375l9.078125 0l0 64.8125l34.078125 0l0 8.625l-43.15625 0zm52.83612 0l0 -73.4375l9.078125 0l0 73.4375l-9.078125 0zm24.382416 0l0 -73.4375l42.84378 0l0 9.078125l-33.765656 0l0 23.09375l27.640625 0l0 9.078125l-27.640625 0l0 32.1875l-9.078125 0zm52.020172 0l0 -73.4375l46.40625 0l0 8.609375l-37.328125 0l0 23.015625l31.21875 0l0 8.609375l-31.21875 0l0 24.578125l37.328125 0l0 8.625l-46.40625 0zm169.98468 1.53125q-7.546875 0 -13.78125 -2.65625q-6.21875 -2.65625 -10.703125 -7.625q-4.484375 -4.96875 -6.90625 -12.03125q-2.421875 -7.0625 -2.421875 -15.9375q0 -11.734375 4.171875 -20.296875q4.1875 -8.578125 11.78125 -13.234375q7.609375 -4.671875 17.859375 -4.671875q12.34375 0 19.890625 5.75q7.546875 5.734375 10.40625 15.671875l-9.1875 1.890625q-2.296875 -6.6875 -7.546875 -10.65625q-5.25 -3.984375 -13.109375 -3.984375q-8.203125 -0.046875 -13.640625 3.65625q-5.421875 3.6875 -8.1875 10.375q-2.75 6.671875 -2.796875 15.5q-0.0625 8.765625 2.6875 15.40625q2.765625 6.625 8.25 10.375q5.484375 3.75 13.6875 3.796875q7.09375 0.046875 11.9375 -2.703125q4.84375 -2.75 7.5 -7.953125q2.65625 -5.203125 3.203125 -12.5l-15.59375 0l0 -7.5l25.1875 0q0.15625 1.03125 0.171875 2.4375q0.03125 1.390625 0.03125 1.90625q0 10.046875 -3.75 17.984375q-3.75 7.921875 -11.0625 12.46875q-7.3125 4.53125 -18.078125 4.53125zm44.109436 -1.53125l0 -73.4375l9.078125 0l0 73.4375l-9.078125 0zm42.33557 0l-24.578125 -73.4375l9.421875 0l21.375 63.796875l21.578125 -63.796875l9.4375 0l-24.59375 73.4375l-12.640625 0zm44.87903 0l0 -73.4375l46.40625 0l0 8.609375l-37.328125 0l0 23.015625l31.21875 0l0 8.609375l-31.21875 0l0 24.578125l37.328125 0l0 8.625l-46.40625 0zm82.67267 1.53125q-7.8125 0 -14.0625 -2.65625q-6.234375 -2.65625 -10.296875 -7.5625q-4.046875 -4.921875 -5.28125 -11.65625l9.390625 -1.484375q1.78125 6.9375 7.421875 10.84375q5.640625 3.890625 13.28125 3.890625q4.953125 0 8.953125 -1.546875q4.0 -1.5625 6.34375 -4.46875q2.359375 -2.90625 2.359375 -6.875q0 -2.453125 -0.84375 -4.203125q-0.84375 -1.765625 -2.296875 -3.015625q-1.453125 -1.25 -3.296875 -2.109375q-1.828125 -0.875 -3.8125 -1.4375l-18.71875 -5.5625q-3.0625 -0.921875 -5.921875 -2.3125q-2.859375 -1.40625 -5.109375 -3.515625q-2.234375 -2.125 -3.5625 -5.109375q-1.328125 -2.984375 -1.328125 -7.0625q0 -6.53125 3.390625 -11.140625q3.390625 -4.625 9.203125 -7.0625q5.828125 -2.453125 13.109375 -2.40625q7.40625 0.046875 13.234375 2.625q5.84375 2.578125 9.6875 7.375q3.859375 4.796875 5.1875 11.46875l-9.640625 1.6875q-0.765625 -4.484375 -3.390625 -7.71875q-2.625 -3.25 -6.5625 -5.0q-3.921875 -1.765625 -8.609375 -1.8125q-4.484375 -0.046875 -8.109375 1.4375q-3.625 1.46875 -5.765625 4.09375q-2.140625 2.625 -2.140625 6.046875q0 3.359375 1.9375 5.4375q1.9375 2.0625 4.765625 3.265625q2.828125 1.1875 5.53125 1.953125l13.984375 4.03125q2.390625 0.65625 5.515625 1.828125q3.140625 1.171875 6.09375 3.296875q2.96875 2.109375 4.90625 5.609375q1.9375 3.484375 1.9375 8.796875q0 5.296875 -2.125 9.4375q-2.109375 4.125 -5.890625 6.90625q-3.765625 2.78125 -8.765625 4.234375q-5.0 1.453125 -10.703125 1.453125zm137.39136 -1.53125l0 -30.546875l-24.734314 -42.890625l10.562439 0l18.765625 32.484375l18.71875 -32.484375l10.546875 0l-24.671875 42.890625l0 30.546875l-9.1875 0zm67.11304 1.53125q-10.96875 0 -18.625 -4.84375q-7.640625 -4.84375 -11.640625 -13.453125q-4.0 -8.625 -4.0 -19.953125q0 -11.328125 4.0 -19.9375q4.0 -8.625 11.640625 -13.46875q7.65625 -4.84375 18.625 -4.84375q11.015625 0 18.65625 4.84375q7.65625 4.84375 11.640625 13.46875q3.984375 8.609375 3.984375 19.9375q0 11.328125 -3.984375 19.953125q-3.984375 8.609375 -11.640625 13.453125q-7.640625 4.84375 -18.65625 4.84375zm0 -8.671875q8.21875 0.046875 13.703125 -3.703125q5.484375 -3.75 8.203125 -10.421875q2.734375 -6.6875 2.734375 -15.453125q0 -8.828125 -2.734375 -15.453125q-2.71875 -6.625 -8.203125 -10.34375q-5.484375 -3.734375 -13.703125 -3.78125q-8.203125 -0.046875 -13.640625 3.671875q-5.421875 3.71875 -8.1875 10.40625q-2.75 6.671875 -2.796875 15.5q-0.0625 8.765625 2.6875 15.40625q2.765625 6.625 8.25 10.375q5.484375 3.75 13.6875 3.796875zm73.44531 8.671875q-8.515625 0 -15.046875 -3.515625q-6.53125 -3.53125 -10.234375 -9.875q-3.6875 -6.34375 -3.6875 -14.921875l0 -46.609375l9.171875 -0.046875l0 45.890625q0 5.203125 1.765625 9.0625q1.765625 3.84375 4.671875 6.40625q2.90625 2.546875 6.390625 3.796875q3.5 1.25 6.96875 1.25q3.515625 0 7.03125 -1.28125q3.53125 -1.28125 6.40625 -3.796875q2.875 -2.53125 4.609375 -6.40625q1.734375 -3.875 1.734375 -9.03125l0 -45.890625l9.1875 0l0 46.65625q0 8.515625 -3.703125 14.890625q-3.6875 6.375 -10.21875 9.90625q-6.53125 3.515625 -15.046875 3.515625zm124.84766 -1.53125l0 -73.4375l8.265625 0l27.734375 58.5l27.59375 -58.5l8.359375 0l0 73.390625l-8.609375 0l0 -53.453125l-24.9375 53.5l-4.84375 0l-24.9375 -53.5l0 53.5l-8.625 0zm115.20996 1.53125q-8.515625 0 -15.046875 -3.515625q-6.53125 -3.53125 -10.234375 -9.875q-3.6875 -6.34375 -3.6875 -14.921875l0 -46.609375l9.171875 -0.046875l0 45.890625q0 5.203125 1.765625 9.0625q1.765625 3.84375 4.671875 6.40625q2.90625 2.546875 6.390625 3.796875q3.5 1.25 6.96875 1.25q3.515625 0 7.03125 -1.28125q3.53125 -1.28125 6.40625 -3.796875q2.875 -2.53125 4.609375 -6.40625q1.734375 -3.875 1.734375 -9.03125l0 -45.890625l9.1875 0l0 46.65625q0 8.515625 -3.703125 14.890625q-3.6875 6.375 -10.21875 9.90625q-6.53125 3.515625 -15.046875 3.515625zm66.249756 0q-7.8125 0 -14.0625 -2.65625q-6.234375 -2.65625 -10.296875 -7.5625q-4.046875 -4.921875 -5.28125 -11.65625l9.390625 -1.484375q1.78125 6.9375 7.421875 10.84375q5.640625 3.890625 13.28125 3.890625q4.953125 0 8.953125 -1.546875q4.0 -1.5625 6.34375 -4.46875q2.359375 -2.90625 2.359375 -6.875q0 -2.453125 -0.84375 -4.203125q-0.84375 -1.765625 -2.296875 -3.015625q-1.453125 -1.25 -3.296875 -2.109375q-1.828125 -0.875 -3.8125 -1.4375l-18.71875 -5.5625q-3.0625 -0.921875 -5.921875 -2.3125q-2.859375 -1.40625 -5.109375 -3.515625q-2.234375 -2.125 -3.5625 -5.109375q-1.328125 -2.984375 -1.328125 -7.0625q0 -6.53125 3.390625 -11.140625q3.390625 -4.625 9.203125 -7.0625q5.828125 -2.453125 13.109375 -2.40625q7.40625 0.046875 13.234375 2.625q5.84375 2.578125 9.6875 7.375q3.859375 4.796875 5.1875 11.46875l-9.640625 1.6875q-0.765625 -4.484375 -3.390625 -7.71875q-2.625 -3.25 -6.5625 -5.0q-3.921875 -1.765625 -8.609375 -1.8125q-4.484375 -0.046875 -8.109375 1.4375q-3.625 1.46875 -5.765625 4.09375q-2.140625 2.625 -2.140625 6.046875q0 3.359375 1.9375 5.4375q1.9375 2.0625 4.765625 3.265625q2.828125 1.1875 5.53125 1.953125l13.984375 4.03125q2.390625 0.65625 5.515625 1.828125q3.140625 1.171875 6.09375 3.296875q2.96875 2.109375 4.90625 5.609375q1.9375 3.484375 1.9375 8.796875q0 5.296875 -2.125 9.4375q-2.109375 4.125 -5.890625 6.90625q-3.765625 2.78125 -8.765625 4.234375q-5.0 1.453125 -10.703125 1.453125zm39.21338 -1.53125l0 -73.4375l9.078125 0l0 73.4375l-9.078125 0zm54.569824 1.53125q-10.96875 0 -18.625 -4.84375q-7.640625 -4.84375 -11.640625 -13.453125q-4.0 -8.625 -4.0 -19.953125q0 -11.328125 4.0 -19.9375q4.0 -8.625 11.640625 -13.46875q7.65625 -4.84375 18.625 -4.84375q12.75 0 20.984375 6.484375q8.25 6.46875 11.359375 17.4375l-9.234375 2.4375q-2.25 -8.203125 -8.015625 -12.9375q-5.75 -4.75 -15.09375 -4.75q-8.203125 0 -13.671875 3.71875q-5.453125 3.71875 -8.203125 10.375q-2.75 6.65625 -2.8125 15.484375q-0.046875 8.765625 2.703125 15.421875q2.765625 6.65625 8.265625 10.40625q5.515625 3.75 13.71875 3.75q9.34375 0 15.09375 -4.765625q5.765625 -4.765625 8.015625 -12.9375l9.234375 2.453125q-3.109375 10.921875 -11.359375 17.421875q-8.234375 6.5 -20.984375 6.5zm44.574463 -1.53125l0 -10.0l10.0 0l0 10.0l-10.0 0zm20.390625 0l0 -10.0l10.0 0l0 10.0l-10.0 0zm20.40625 0l0 -10.0l10.0 0l0 10.0l-10.0 0z" fill="#ffb6c1"/></g></svg>