<svg version="1.1" viewBox="0.0 0.0 1590.0 192.0" fill="none" stroke="none" stroke-linecap="square" stroke-miterlimit="10" xmlns:xlink="http://www.w3.org/1999/xlink" xmlns="http://www.w3.org/2000/svg"><clipPath id="p.0"><path d="m0 0l1590.0 0l0 192.0l-1590.0 0l0 -192.0z" clip-rule="nonzero"/></clipPath><g clip-path="url(#p.0)"><path fill="#000000" fill-opacity="0.0" d="m0 0l1590.0 0l0 192.0l-1590.0 0z" fill-rule="evenodd"/><path fill="#000000" fill-opacity="0.0" d="m-41.54698 654.4973l1664.1575 0l0 56.97638l-1664.1575 0z" fill-rule="evenodd"/><path fill="#ffd966" d="m52.80812 561.23175q-0.59375 7.46875 -3.4375 16.875q-2.828125 9.40625 -4.015625 15.375l0 3.59375q0 4.171875 -0.609375 8.953125q-0.59375 4.78125 -1.1875 9.109375q-0.59375 4.328125 -1.34375 7.625q-0.75 3.28125 -0.75 4.46875q-0.296875 1.5 -0.296875 7.171875q0 5.671875 0 15.234375l0 3.578125q0 5.96875 -0.59375 10.453125q-0.59375 4.484375 -1.5 8.0625l2.6875 22.40625q1.203125 3.28125 8.0625 9.859375q-1.484375 5.375 -7.765625 9.703125q-6.265625 4.328125 -12.84375 4.328125q-8.953125 0 -13.59375 -8.515625q-4.625 -8.515625 -4.625 -28.515625q0 -3.296875 0.453125 -5.671875q0.453125 -2.390625 0.453125 -5.984375q0 -7.15625 -1.796875 -17.921875q1.5 -3.28125 2.234375 -8.359375q0.75 -5.078125 1.046875 -9.703125q0.296875 -4.625 0.296875 -7.90625q0 -3.296875 0 -2.6875q0 0.296875 0.75 -4.1875q0.75 -4.484375 1.640625 -10.59375q0.90625 -6.125 1.640625 -12.6875q0.75 -6.578125 0.75 -10.46875l0 -2.390625l5.078125 -25.078125q3.890625 -6.578125 13.4375 -6.578125q10.453125 0 15.828125 10.453125zm91.99106 16.421875q0.59375 2.390625 0.59375 4.484375q0 9.5625 -5.671875 16.125q-8.953125 3.59375 -17.921875 3.59375q-5.671875 -3.59375 -9.40625 -8.21875q-3.734375 -4.625 -3.734375 -9.109375q0 -3.890625 8.96875 -19.109375q3.875 0.59375 8.203125 0.890625q4.34375 0.296875 8.0625 1.5q3.734375 1.1875 6.578125 3.4375q2.84375 2.234375 4.328125 6.40625zm-9.5625 49.875l0 3.890625q0 1.484375 0 3.28125q0 1.796875 -0.59375 3.28125l-2.390625 13.4375l0 2.6875q0 1.796875 -0.296875 4.78125q-0.296875 2.984375 -0.75 5.984375q-0.4375 2.984375 -0.734375 5.671875q-0.296875 2.6875 -0.296875 4.46875q0 1.5 0.140625 2.40625q0.15625 0.890625 0.15625 2.375q0 2.6875 -0.609375 5.828125q-0.59375 3.140625 -0.59375 7.015625q0 3.59375 0.90625 7.46875q-3.296875 13.4375 -13.75 13.4375q-14.625 0 -14.625 -27.46875q0 -9.265625 0.890625 -18.375q0.890625 -9.109375 2.078125 -16.875q1.203125 -7.765625 2.546875 -13.578125q1.34375 -5.828125 2.25 -9.109375q4.46875 -6.578125 12.53125 -6.578125q7.765625 0 13.140625 5.96875zm133.20662 56.453125q-0.890625 9.25 -6.125 16.875q-5.21875 7.609375 -10.593735 15.375q-3.296875 2.6875 -9.421875 4.625q-6.109375 1.953125 -12.09375 3.140625q-5.96875 1.203125 -10.296875 1.796875q-4.328125 0.59375 -3.734375 0.59375q-2.9843597 0 -7.6249847 -1.046875q-4.625 -1.046875 -8.953125 -2.09375q-4.328125 -1.046875 -7.171875 -2.09375q-2.828125 -1.03125 -2.53125 -1.03125q-2.6875 -0.296875 -6.875 -1.9375q-4.171875 -1.65625 -7.90625 -3.890625q-3.734375 -2.234375 -6.5625 -4.765625q-2.84375 -2.546875 -2.84375 -4.9375q0 -2.390625 1.203125 -4.921875q1.1875 -2.546875 3.265625 -4.78125q2.09375 -2.25 4.328125 -3.59375q2.25 -1.34375 4.640625 -1.34375l20.609375 7.765625q5.671875 1.796875 11.1875 2.546875q5.5312347 0.734375 10.906235 0.734375q5.078125 0 9.109375 -1.9375q4.03125 -1.9375 6.125 -4.625l4.484375 -8.96875q-0.59375 -5.375 -4.328125 -8.359375q-3.734375 -2.984375 -9.265625 -5.0625q-5.515625 -2.09375 -11.796875 -3.890625q-6.2656097 -1.796875 -11.64061 -4.78125l-12.84375 -8.0625q-6.28125 -8.0625 -6.578125 -24.796875q1.796875 -10.453125 8.96875 -16.71875q0.296875 -0.296875 3.875 -2.828125q3.59375 -2.546875 11.046875 -7.328125q1.203125 0 7.6249847 -0.59375q6.421875 -0.59375 17.765625 -1.796875q5.078125 0 24.79686 7.171875q3.875 3.890625 3.875 10.75q0 5.375 -2.546875 9.109375q-2.53125 3.734375 -7.3124847 3.734375q-5.078125 0 -11.203125 -2.53125q-6.109375 -2.546875 -11.484375 -2.546875q-7.46875 0 -13.59375 1.34375q-6.1249847 1.34375 -6.1249847 6.125q0 6.875 5.9687347 8.359375q45.70311 10.15625 51.67186 41.21875zm111.99869 -78.25q3.28125 2.6875 3.28125 9.859375q0 13.140625 -9.859375 13.140625l-1.1875 0q-4.484375 0.296875 -10.453125 0.75q-5.96875 0.4375 -13.4375 1.34375q-0.59375 4.765625 -1.203125 12.6875q-0.59375 7.90625 -0.59375 18.96875q0 0.890625 0.140625 1.796875q0.15625 0.890625 0.15625 2.078125l0 13.734375q0 4.78125 1.640625 7.625q1.65625 2.828125 4.03125 4.03125l8.375 2.6875q9.84375 3.28125 9.84375 11.9375q0 5.078125 -4.03125 8.96875q-4.03125 3.875 -10.296875 3.875q-1.796875 0 -6.125 -1.03125q-4.328125 -1.046875 -8.96875 -2.84375q-4.625 -1.796875 -8.65625 -4.484375q-4.03125 -2.6875 -5.515625 -5.96875q-3.296875 -6.875 -5.390625 -14.484375q-2.078125 -7.625 -2.078125 -15.984375q0 -9.25 0.296875 -13.125q0.296875 -3.890625 0.59375 -6.875q0.296875 -3.0 0.59375 -7.171875q0.3125 -4.1875 0.3125 -13.734375q-5.6875 0.59375 -16.734375 3.578125q-6.5625 0 -11.203125 -3.4375q-4.625 -3.4375 -4.625 -9.109375q0 -4.171875 2.53125 -7.75q2.546875 -3.59375 10.609375 -6.28125q2.6875 -0.890625 4.921875 -1.1875q2.25 -0.3125 4.484375 -0.609375q2.25 -0.296875 4.9375 -0.4375q2.6875 -0.15625 6.5625 -0.75q0.296875 -7.46875 1.046875 -16.875q0.75 -9.40625 2.6875 -17.46875q1.9375 -8.0625 5.671875 -13.59375q3.734375 -5.53125 10.015625 -5.53125q10.75 0 13.140625 9.859375q0 0.296875 -0.75 4.03125q-0.75 3.734375 -1.65625 8.21875q-0.890625 4.46875 -1.640625 8.65625q-0.734375 4.1875 -0.734375 5.375l-0.90625 14.640625q2.09375 -0.296875 3.890625 -0.453125q1.796875 -0.15625 3.875 -0.15625l2.6875 0q2.09375 0 3.890625 -0.140625q1.796875 -0.15625 3.28125 -0.15625q8.96875 0 12.546875 1.796875zm133.49307 100.640625q-9.546875 9.5625 -21.5 16.28125q-11.9375 6.71875 -24.1875 6.71875q-11.046875 0 -28.375 -3.578125q-5.96875 -3.890625 -11.953125 -9.40625q-5.96875 -5.53125 -10.75 -12.25q-4.765625 -6.71875 -7.765625 -14.625q-2.984375 -7.921875 -2.984375 -16.28125q0 -2.390625 0.296875 -6.421875q0.296875 -4.03125 0.75 -8.0625q0.453125 -4.03125 0.75 -7.015625q0.296875 -3.0 0.296875 -3.0q5.96875 -9.546875 12.6875 -18.953125q6.71875 -9.40625 18.96875 -16.578125q19.421875 -4.1875 28.078125 -4.1875q4.484375 0 7.765625 0.453125q3.28125 0.453125 6.40625 1.796875q3.140625 1.34375 6.28125 4.03125q3.140625 2.6875 7.3125 6.859375q4.78125 5.078125 7.609375 6.875q2.84375 1.796875 2.84375 3.28125q0 27.484375 -17.015625 37.328125q-7.46875 2.6875 -19.421875 5.828125q-11.9375 3.140625 -32.546875 5.828125q4.1875 11.34375 11.046875 17.03125q6.875 5.671875 15.53125 5.671875q12.84375 0 32.265625 -15.234375q2.984375 -2.6875 7.453125 -2.6875q4.78125 0 8.515625 3.578125q3.734375 3.578125 3.734375 8.953125q0 3.890625 -2.09375 7.765625zm-33.75 -63.90625q-5.671875 -9.25 -13.4375 -9.25q-3.28125 0 -7.171875 0.890625q-3.875 0.890625 -7.90625 2.53125q-4.03125 1.640625 -7.46875 4.03125q-3.4375 2.390625 -5.515625 5.6875l-3.0 8.953125q10.15625 -0.890625 17.921875 -1.484375q7.765625 -0.609375 13.4375 -1.796875q5.6875 -1.203125 8.96875 -3.28125q3.28125 -2.09375 4.171875 -6.28125zm170.24207 42.703125l0 2.390625q0 1.796875 0.140625 6.421875q0.15625 4.625 -0.890625 9.40625q-1.046875 4.78125 -4.03125 8.515625q-2.984375 3.734375 -8.953125 3.734375q-11.65625 0 -13.75 -9.265625q0.3125 -1.78125 0.3125 -4.015625q0 -2.25 0 -4.9375q0 -1.1875 0 -8.796875q0 -7.625 -0.453125 -16.578125q-0.453125 -8.96875 -1.953125 -16.875q-1.484375 -7.921875 -4.46875 -10.015625q-6.875 -4.78125 -12.25 -4.78125q-7.15625 0 -12.09375 4.34375q-4.921875 4.328125 -8.21875 16.859375q-0.296875 4.1875 -0.59375 9.421875q-0.296875 5.21875 -0.890625 11.78125q0 5.078125 0.296875 11.203125q0.296875 6.125 0.890625 13.890625q0 5.671875 -4.484375 9.40625q-4.46875 3.734375 -10.140625 3.734375q-4.484375 0 -7.171875 -2.390625q-2.6875 -2.390625 -4.03125 -6.265625q-1.34375 -3.890625 -1.796875 -8.359375q-0.4375 -4.484375 -0.4375 -8.96875q0 -3.28125 0.296875 -6.71875q0.296875 -3.4375 0.890625 -7.015625l2.390625 -28.671875l2.390625 -14.34375q-0.59375 -3.578125 -2.390625 -7.75q-1.796875 -4.1875 -1.796875 -6.578125q0 -5.078125 4.03125 -9.25q4.03125 -4.1875 10.015625 -4.1875q4.171875 0 6.265625 1.640625q2.09375 1.640625 6.875 7.90625q5.96875 -2.6875 9.546875 -3.421875q3.59375 -0.75 8.375 -0.75q15.515625 0 27.3125 7.3125q11.796875 7.3125 14.796875 24.34375q0.890625 6.265625 1.640625 10.453125q0.75 4.1875 1.34375 8.078125q0.59375 3.875 1.1875 8.203125q0.59375 4.328125 1.796875 10.890625zm151.42242 -2.078125q5.375 3.578125 5.375 8.65625q0 2.6875 -1.5 5.53125q-1.484375 2.828125 -3.875 5.078125q-2.390625 2.234375 -5.078125 3.734375q-2.6875 1.484375 -5.375 1.484375q-2.390625 -0.890625 -5.6875 -3.125q-3.28125 -2.25 -6.5625 -5.078125q-3.28125 -2.84375 -6.125 -6.421875q-2.828125 -3.59375 -4.328125 -7.171875l-2.09375 5.078125q-5.671875 10.75 -17.921875 20.296875q-14.921875 2.6875 -17.3125 2.6875q-5.671875 0 -13.734375 -1.78125l-16.4375 -11.65625q-10.75 -10.15625 -10.75 -27.765625q0 -6.28125 1.9375 -13.890625q1.953125 -7.625 5.671875 -15.390625q3.734375 -7.765625 9.109375 -15.21875q5.390625 -7.46875 12.546875 -13.453125q8.671875 -3.28125 16.734375 -5.515625q8.0625 -2.25 12.234375 -2.84375q5.6875 -6.265625 13.453125 -6.265625q4.46875 0 7.90625 4.328125q3.4375 4.328125 5.96875 10.90625q2.546875 6.5625 4.03125 14.484375q1.5 7.90625 2.09375 15.078125l3.890625 15.828125q1.78125 7.46875 5.8125 12.84375q4.03125 5.375 10.015625 9.5625zm-45.40625 -33.15625q-0.59375 -0.296875 -4.46875 -18.8125q-1.5 0 -4.484375 0q-2.984375 0 -7.015625 1.640625q-4.03125 1.640625 -8.671875 5.671875q-4.625 4.03125 -8.796875 12.09375q-6.28125 11.65625 -6.28125 23.296875q5.078125 9.859375 15.828125 15.53125q3.28125 -0.890625 5.515625 -2.078125q2.25 -1.203125 4.046875 -3.296875q1.796875 -2.09375 3.4375 -5.21875q1.640625 -3.140625 3.734375 -7.921875q3.875 -6.875 5.515625 -12.09375q1.640625 -5.234375 1.640625 -8.8125zm175.61127 -77.65625q-0.890625 2.6875 -0.890625 10.453125q0 4.484375 0.140625 11.359375q0.15625 6.859375 0.15625 11.34375q0 4.1875 0 7.46875q0 3.28125 -0.59375 5.375q0.296875 1.1875 0.296875 2.6875q0 1.484375 0 3.28125q0 4.1875 -0.609375 10.609375q-0.59375 6.421875 -0.59375 8.8125q0 0.59375 0.15625 1.046875q0.15625 0.4375 0.15625 1.03125q-2.6875 16.125 -3.4375 29.125q-0.75 12.984375 -2.09375 22.25q-1.34375 9.25 -4.484375 14.1875q-3.125 4.921875 -10.59375 4.921875q-6.28125 0 -11.0625 -2.984375l0 -2.09375q-8.953125 3.890625 -23.890625 3.890625q-9.84375 0 -18.0625 -3.578125q-8.21875 -3.59375 -14.1875 -10.015625q-5.96875 -6.421875 -9.265625 -15.078125q-3.28125 -8.671875 -3.28125 -18.8125q0 -5.6875 1.34375 -11.203125q1.34375 -5.53125 3.4375 -10.453125q2.09375 -4.9375 4.625 -8.96875q2.546875 -4.03125 4.9375 -6.71875q5.96875 -6.5625 17.3125 -11.9375q11.359375 -5.375 24.203125 -5.375q8.65625 0 17.609375 3.28125q0 -4.484375 0.453125 -10.75q0.453125 -6.265625 1.046875 -14.640625l-1.203125 -20.296875q0 -1.5 -0.15625 -2.546875q-0.140625 -1.046875 -0.140625 -2.234375q0 -9.859375 2.53125 -14.9375q2.546875 -5.078125 10.3125 -5.078125q4.78125 0 7.609375 1.203125q2.84375 1.1875 4.484375 4.03125q1.640625 2.828125 2.234375 8.0625q0.609375 5.21875 1.5 13.28125zm-30.75 71.390625q-5.984375 -4.1875 -14.640625 -4.1875q-6.265625 0 -10.609375 0.90625q-4.328125 0.890625 -7.3125 3.125q-2.984375 2.234375 -5.078125 5.96875q-2.09375 3.734375 -4.171875 9.109375q-1.796875 5.078125 -1.796875 9.5625q0 9.546875 6.71875 14.9375q6.71875 5.375 16.28125 5.375q8.359375 0 16.125 -5.984375q2.6875 -12.234375 3.734375 -17.15625q1.046875 -4.9375 1.046875 -8.515625q0 -3.296875 -0.3125 -6.125q-0.296875 -2.84375 -0.296875 -4.9375q0 -0.59375 0.15625 -1.03125q0.15625 -0.453125 0.15625 -1.046875zm178.58398 62.703125q-9.546875 9.5625 -21.5 16.28125q-11.9375 6.71875 -24.1875 6.71875q-11.046875 0 -28.375 -3.578125q-5.96875 -3.890625 -11.953125 -9.40625q-5.96875 -5.53125 -10.75 -12.25q-4.765625 -6.71875 -7.765625 -14.625q-2.984375 -7.921875 -2.984375 -16.28125q0 -2.390625 0.296875 -6.421875q0.296875 -4.03125 0.75 -8.0625q0.453125 -4.03125 0.75 -7.015625q0.296875 -3.0 0.296875 -3.0q5.96875 -9.546875 12.6875 -18.953125q6.71875 -9.40625 18.96875 -16.578125q19.421875 -4.1875 28.078125 -4.1875q4.484375 0 7.765625 0.453125q3.28125 0.453125 6.40625 1.796875q3.140625 1.34375 6.28125 4.03125q3.140625 2.6875 7.3125 6.859375q4.78125 5.078125 7.609375 6.875q2.84375 1.796875 2.84375 3.28125q0 27.484375 -17.015625 37.328125q-7.46875 2.6875 -19.421875 5.828125q-11.9375 3.140625 -32.546875 5.828125q4.1875 11.34375 11.046875 17.03125q6.875 5.671875 15.53125 5.671875q12.84375 0 32.265625 -15.234375q2.984375 -2.6875 7.453125 -2.6875q4.78125 0 8.515625 3.578125q3.734375 3.578125 3.734375 8.953125q0 3.890625 -2.09375 7.765625zm-33.75 -63.90625q-5.671875 -9.25 -13.4375 -9.25q-3.28125 0 -7.171875 0.890625q-3.875 0.890625 -7.90625 2.53125q-4.03125 1.640625 -7.46875 4.03125q-3.4375 2.390625 -5.515625 5.6875l-3.0 8.953125q10.15625 -0.890625 17.921875 -1.484375q7.765625 -0.609375 13.4375 -1.796875q5.6875 -1.203125 8.96875 -3.28125q3.28125 -2.09375 4.171875 -6.28125z" fill-rule="nonzero"/><path fill="#ffb6c1" d="m1114.7244 707.2161q0 -7.46875 3.625 -10.609375q3.640625 -3.15625 8.859375 -3.15625q5.453125 0 9.1875 3.15625q3.734375 3.140625 3.734375 10.609375q0 7.375 -3.734375 10.734375q-3.734375 3.359375 -9.1875 3.359375q-5.21875 0 -8.859375 -3.359375q-3.625 -3.359375 -3.625 -10.734375zm106.97119 13.25q-15.796875 0 -27.859375 -6.515625q-12.0625 -6.515625 -18.796875 -19.859375q-6.71875 -13.34375 -6.71875 -33.625q0 -21.25 7.09375 -34.75q7.109375 -13.515625 19.59375 -20.03125q12.5 -6.515625 28.40625 -6.515625q8.75 0 16.921875 1.765625q8.171875 1.765625 13.390625 4.4375l-5.328125 14.828125q-5.34375 -2.125 -12.34375 -3.828125q-6.984375 -1.71875 -13.078125 -1.71875q-12.15625 0 -20.21875 5.234375q-8.0625 5.234375 -12.078125 15.375q-4.0 10.140625 -4.0 24.984375q0 14.203125 3.890625 24.234375q3.90625 10.03125 11.640625 15.328125q7.75 5.28125 19.390625 5.28125q9.28125 0 16.75 -1.96875q7.484375 -1.984375 13.5625 -4.65625l0 15.796875q-5.875 3.0 -13.078125 4.59375q-7.203125 1.609375 -17.140625 1.609375zm158.76843 -60.859375q0 14.40625 -3.734375 25.734375q-3.734375 11.3125 -10.78125 19.109375q-7.046875 7.796875 -17.03125 11.90625q-9.984375 4.109375 -22.578125 4.109375q-11.75 0 -21.515625 -4.109375q-9.765625 -4.109375 -16.875 -11.90625q-7.09375 -7.796875 -11.0 -19.109375q-3.890625 -11.328125 -3.890625 -25.734375q0 -19.21875 6.515625 -32.71875q6.515625 -13.515625 18.625 -20.609375q12.125 -7.109375 28.875 -7.109375q16.015625 0 28.03125 7.15625q12.015625 7.15625 18.6875 20.671875q6.671875 13.5 6.671875 32.609375zm-89.046875 0q0 14.09375 3.734375 24.453125q3.75 10.34375 11.53125 16.015625q7.796875 5.65625 20.078125 5.65625q12.171875 0 20.015625 -5.65625q7.84375 -5.671875 11.578125 -16.015625q3.75 -10.359375 3.75 -24.453125q0 -13.984375 -3.75 -24.171875q-3.734375 -10.203125 -11.53125 -15.75q-7.78125 -5.5625 -20.171875 -5.5625q-18.25 0 -26.75 12.0625q-8.484375 12.0625 -8.484375 33.421875zm246.73853 -60.4375q19.328125 0 29.140625 10.09375q9.828125 10.09375 9.828125 32.40625l0 76.65625l-17.515625 0l0 -75.796875q0 -14.203125 -6.140625 -21.296875q-6.125 -7.109375 -18.1875 -7.109375q-16.984375 0 -24.671875 9.828125q-7.6875 9.8125 -7.6875 28.921875l0 65.453125l-17.609375 0l0 -75.796875q0 -9.515625 -2.734375 -15.8125q-2.71875 -6.296875 -8.109375 -9.4375q-5.390625 -3.15625 -13.609375 -3.15625q-11.640625 0 -18.6875 4.8125q-7.046875 4.796875 -10.203125 14.25q-3.140625 9.4375 -3.140625 23.21875l0 61.921875l-17.71875 0l0 -117.015625l14.296875 0l2.671875 16.546875l0.96875 0q3.515625 -6.078125 8.859375 -10.234375q5.34375 -4.171875 11.953125 -6.3125q6.625 -2.140625 14.09375 -2.140625q13.34375 0 22.359375 4.96875q9.03125 4.96875 13.09375 15.109375l0.953125 0q5.765625 -10.140625 15.796875 -15.109375q10.046875 -4.96875 22.0 -4.96875z" fill-rule="nonzero"/><path fill="#000000" fill-opacity="0.0" d="m-33.937954 663.8866l1636.756 0l0 126.99213l-1636.756 0z" fill-rule="evenodd"/><path fill="#ffb6c1" d="m95.629555 699.70624l-19.46875 72.8125l-8.515625 0l-14.453129 -49.015625q-0.640625 -2.078125 -1.21875 -4.1875q-0.578125 -2.125 -1.078125 -4.046875q-0.484375 -1.921875 -0.8125 -3.390625q-0.328125 -1.46875 -0.46875 -2.21875q-0.109375 0.75 -0.390625 2.203125q-0.265625 1.4375 -0.6875 3.328125q-0.421875 1.890625 -1.0 4.03125q-0.5625 2.140625 -1.21875 4.34375l-14.046875 48.953125l-8.515623 0l-19.3125 -72.8125l8.8125 0l11.703126 45.671875q0.59375 2.28125 1.109375 4.5q0.53125 2.21875 0.953125 4.3125q0.421875 2.09375 0.765625 4.09375q0.359375 1.984375 0.65625 3.875q0.25 -1.9375 0.640625 -4.046875q0.40625 -2.125 0.875 -4.3125q0.484375 -2.203125 1.046875 -4.4375q0.578125 -2.25 1.2187481 -4.484375l13.109375 -45.171875l8.703125 0l13.656254 45.515625q0.6875 2.34375 1.28125 4.640625q0.609375 2.28125 1.078125 4.453125q0.46875 2.171875 0.84375 4.140625q0.375 1.953125 0.671875 3.703125q0.359375 -2.4375 0.84375 -5.125q0.5 -2.6875 1.171875 -5.625q0.6875 -2.953125 1.484375 -6.078125l11.703125 -45.625l8.859375 0zm66.63378 72.8125l-8.46875 0l0 -34.3125l-38.249992 0l0 34.3125l-8.453125 0l0 -72.8125l8.453125 0l0 31.03125l38.249992 0l0 -31.03125l8.46875 0l0 72.8125zm60.564453 0l-40.53125 0l0 -72.8125l40.53125 0l0 7.46875l-32.078125 0l0 23.5625l30.234375 0l0 7.359375l-30.234375 0l0 26.953125l32.078125 0l0 7.46875zm73.06836 0l-9.765625 0l-39.6875 -61.15625l-0.40625 0q0.15625 2.4375 0.34375 5.546875q0.203125 3.109375 0.328125 6.625q0.125 3.515625 0.125 7.140625l0 41.84375l-7.859375 0l0 -72.8125l9.703125 0l39.546875 60.953125l0.34375 0q-0.09375 -1.734375 -0.25 -4.9375q-0.140625 -3.21875 -0.265625 -6.921875q-0.125 -3.71875 -0.125 -6.90625l0 -42.1875l7.96875 0l0 72.8125z" fill-rule="nonzero"/><path fill="#ffb6c1" d="m387.97983 772.51874l0 -72.8125l8.453125 0l0 65.234375l32.328125 0l0 7.578125l-40.78125 0zm53.24121 0l0 -72.8125l8.453125 0l0 72.8125l-8.453125 0zm36.941406 0l-8.453125 0l0 -72.8125l40.53125 0l0 7.46875l-32.078125 0l0 26.6875l30.140625 0l0 7.421875l-30.140625 0l0 31.234375zm84.72171 0l-40.53125 0l0 -72.8125l40.53125 0l0 7.46875l-32.078125 0l0 23.5625l30.234375 0l0 7.359375l-30.234375 0l0 26.953125l32.078125 0l0 7.46875z" fill-rule="nonzero"/><path fill="#ffb6c1" d="m682.36237 734.3625l25.453125 0l0 35.3125q-5.734375 1.953125 -11.796875 2.890625q-6.046875 0.953125 -13.515625 0.953125q-11.34375 0 -19.140625 -4.53125q-7.796875 -4.53125 -11.84375 -12.921875q-4.03125 -8.40625 -4.03125 -19.953125q0 -11.3125 4.453125 -19.71875q4.46875 -8.421875 12.90625 -13.078125q8.453125 -4.65625 20.296875 -4.65625q6.078125 0 11.53125 1.125q5.453125 1.109375 10.140625 3.15625l-3.234375 7.375q-4.046875 -1.75 -8.90625 -2.984375q-4.84375 -1.25 -10.03125 -1.25q-8.90625 0 -15.265625 3.6875q-6.34375 3.6875 -9.703125 10.40625q-3.359375 6.71875 -3.359375 15.9375q0 9.109375 2.9375 15.859375q2.9375 6.75 9.15625 10.484375q6.234375 3.734375 16.046875 3.734375q4.921875 0 8.453125 -0.5625q3.546875 -0.578125 6.4375 -1.375l0 -22.3125l-16.984375 0l0 -7.578125zm43.03418 38.15625l0 -72.8125l8.453125 0l0 72.8125l-8.453125 0zm79.33203 -72.8125l-26.140625 72.8125l-8.53125 0l-26.140625 -72.8125l8.859375 0l17.046875 47.953125q1.03125 2.890625 1.859375 5.53125q0.828125 2.640625 1.46875 5.09375q0.65625 2.4375 1.140625 4.71875q0.5 -2.28125 1.140625 -4.75q0.65625 -2.46875 1.5 -5.125q0.859375 -2.671875 1.890625 -5.609375l16.9375 -47.8125l8.96875 0zm50.499023 72.8125l-40.53125 0l0 -72.8125l40.53125 0l0 7.46875l-32.078125 0l0 23.5625l30.234375 0l0 7.359375l-30.234375 0l0 26.953125l32.078125 0l0 7.46875zm57.22461 -19.375q0 6.46875 -3.21875 11.03125q-3.203125 4.5625 -8.984375 6.953125q-5.765625 2.390625 -13.59375 2.390625q-4.125 0 -7.8125 -0.40625q-3.6875 -0.390625 -6.78125 -1.140625q-3.078125 -0.75 -5.421875 -1.84375l0 -8.125q3.734375 1.546875 9.109375 2.875q5.375 1.3125 11.25 1.3125q5.484375 0 9.265625 -1.46875q3.796875 -1.46875 5.75 -4.234375q1.96875 -2.765625 1.96875 -6.640625q0 -3.734375 -1.640625 -6.25q-1.640625 -2.515625 -5.453125 -4.578125q-3.8125 -2.078125 -10.375 -4.421875q-4.640625 -1.640625 -8.1875 -3.609375q-3.53125 -1.96875 -5.921875 -4.453125q-2.390625 -2.484375 -3.609375 -5.765625q-1.21875 -3.296875 -1.21875 -7.53125q0 -5.828125 2.96875 -9.984375q2.96875 -4.15625 8.21875 -6.375q5.25 -2.21875 12.078125 -2.21875q5.828125 0 10.78125 1.09375q4.953125 1.09375 9.09375 2.9375l-2.640625 7.265625q-3.9375 -1.640625 -8.34375 -2.734375q-4.40625 -1.09375 -9.09375 -1.09375q-4.6875 0 -7.90625 1.375q-3.203125 1.359375 -4.890625 3.859375q-1.6875 2.484375 -1.6875 5.921875q0 3.828125 1.609375 6.375q1.625 2.546875 5.1875 4.515625q3.5625 1.953125 9.4375 4.09375q6.421875 2.34375 10.90625 4.96875q4.484375 2.609375 6.8125 6.375q2.34375 3.75 2.34375 9.53125z" fill-rule="nonzero"/><path fill="#ffb6c1" d="m1018.07404 736.20624l19.374939 -36.5l9.125 0l-24.265564 44.578125l0 28.234375l-8.453125 0l0 -27.84375l-24.312561 -44.96875l9.265686 0l19.265625 36.5zm101.60443 -0.1875q0 8.40625 -2.140625 15.3125q-2.140625 6.890625 -6.359375 11.84375q-4.203125 4.953125 -10.421875 7.65625q-6.21875 2.6875 -14.4375 2.6875q-8.46875 0 -14.78125 -2.6875q-6.296875 -2.703125 -10.453125 -7.671875q-4.15625 -4.984375 -6.234375 -11.90625q-2.0625 -6.921875 -2.0625 -15.34375q0 -11.15625 3.6875 -19.5625q3.6875 -8.421875 11.1875 -13.09375q7.5 -4.6875 18.796875 -4.6875q10.8125 0 18.203125 4.625q7.40625 4.625 11.203125 13.03125q3.8125 8.390625 3.8125 19.796875zm-57.96875 0q0 9.25 2.640625 16.03125q2.640625 6.765625 8.09375 10.453125q5.453125 3.6875 13.875 3.6875q8.46875 0 13.859375 -3.6875q5.40625 -3.6875 8.0 -10.453125q2.59375 -6.78125 2.59375 -16.03125q0 -14.109375 -5.90625 -22.046875q-5.90625 -7.9375 -18.40625 -7.9375q-8.46875 0 -13.953125 3.640625q-5.46875 3.625 -8.140625 10.328125q-2.65625 6.6875 -2.65625 16.015625zm129.24512 -36.3125l0 47.109375q0 7.71875 -3.125 13.75q-3.109375 6.03125 -9.390625 9.5q-6.265625 3.453125 -15.71875 3.453125q-13.5 0 -20.546875 -7.3125q-7.046875 -7.328125 -7.046875 -19.59375l0 -46.90625l8.515625 0l0 47.15625q0 9.265625 4.90625 14.296875q4.90625 5.03125 14.65625 5.03125q6.6875 0 10.9375 -2.40625q4.265625 -2.421875 6.328125 -6.78125q2.0625 -4.359375 2.0625 -10.078125l0 -47.21875l8.421875 0z" fill-rule="nonzero"/><path fill="#ffb6c1" d="m1314.4574 772.51874l-24.453125 -64.453125l-0.390625 0q0.1875 2.046875 0.328125 4.984375q0.15625 2.9375 0.25 6.40625q0.109375 3.453125 0.109375 7.046875l0 46.015625l-7.859375 0l0 -72.8125l12.546875 0l23.0625 60.5625l0.34375 0l23.40625 -60.5625l12.453125 0l0 72.8125l-8.375 0l0 -46.625q0 -3.234375 0.09375 -6.484375q0.109375 -3.265625 0.25 -6.171875q0.15625 -2.921875 0.3125 -5.0625l-0.40625 0l-24.75 64.34375l-6.921875 0zm114.802734 -72.8125l0 47.109375q0 7.71875 -3.125 13.75q-3.109375 6.03125 -9.390625 9.5q-6.265625 3.453125 -15.71875 3.453125q-13.5 0 -20.546875 -7.3125q-7.046875 -7.328125 -7.046875 -19.59375l0 -46.90625l8.515625 0l0 47.15625q0 9.265625 4.90625 14.296875q4.90625 5.03125 14.65625 5.03125q6.6875 0 10.9375 -2.40625q4.265625 -2.421875 6.328125 -6.78125q2.0625 -4.359375 2.0625 -10.078125l0 -47.21875l8.421875 0zm60.3584 53.4375q0 6.46875 -3.21875 11.03125q-3.203125 4.5625 -8.984375 6.953125q-5.765625 2.390625 -13.59375 2.390625q-4.125 0 -7.8125 -0.40625q-3.6875 -0.390625 -6.78125 -1.140625q-3.078125 -0.75 -5.421875 -1.84375l0 -8.125q3.734375 1.546875 9.109375 2.875q5.375 1.3125 11.25 1.3125q5.484375 0 9.265625 -1.46875q3.796875 -1.46875 5.75 -4.234375q1.96875 -2.765625 1.96875 -6.640625q0 -3.734375 -1.640625 -6.25q-1.640625 -2.515625 -5.453125 -4.578125q-3.8125 -2.078125 -10.375 -4.421875q-4.640625 -1.640625 -8.1875 -3.609375q-3.53125 -1.96875 -5.921875 -4.453125q-2.390625 -2.484375 -3.609375 -5.765625q-1.21875 -3.296875 -1.21875 -7.53125q0 -5.828125 2.96875 -9.984375q2.96875 -4.15625 8.21875 -6.375q5.25 -2.21875 12.078125 -2.21875q5.828125 0 10.78125 1.09375q4.953125 1.09375 9.09375 2.9375l-2.640625 7.265625q-3.9375 -1.640625 -8.34375 -2.734375q-4.40625 -1.09375 -9.09375 -1.09375q-4.6875 0 -7.90625 1.375q-3.203125 1.359375 -4.890625 3.859375q-1.6875 2.484375 -1.6875 5.921875q0 3.828125 1.609375 6.375q1.625 2.546875 5.1875 4.515625q3.5625 1.953125 9.4375 4.09375q6.421875 2.34375 10.90625 4.96875q4.484375 2.609375 6.8125 6.375q2.34375 3.75 2.34375 9.53125zm14.852539 19.375l0 -72.8125l8.453125 0l0 72.8125l-8.453125 0zm59.61328 -66.390625q-6.03125 0 -10.84375 2.078125q-4.796875 2.0625 -8.15625 5.96875q-3.359375 3.90625 -5.15625 9.4375q-1.796875 5.53125 -1.796875 12.453125q0 9.15625 2.859375 15.90625q2.875 6.75 8.578125 10.4375q5.703125 3.6875 14.265625 3.6875q4.875 0 9.1875 -0.8125q4.3125 -0.828125 8.390625 -2.078125l0 7.375q-3.984375 1.484375 -8.375 2.203125q-4.375 0.734375 -10.40625 0.734375q-11.109375 0 -18.5625 -4.609375q-7.4375 -4.609375 -11.15625 -13.015625q-3.703125 -8.421875 -3.703125 -19.875q0 -8.28125 2.3125 -15.125q2.328125 -6.84375 6.78125 -11.828125q4.453125 -4.984375 10.953125 -7.6875q6.5 -2.71875 14.921875 -2.71875q5.53125 0 10.65625 1.09375q5.140625 1.09375 9.265625 3.140625l-3.390625 7.171875q-3.484375 -1.59375 -7.640625 -2.765625q-4.15625 -1.171875 -8.984375 -1.171875z" fill-rule="nonzero"/><path fill="#000000" fill-opacity="0.0" d="m-40.0 36.541935l1664.1575 0l0 118.92914l-1664.1575 0z" fill-rule="evenodd"/><path fill="#ffd966" d="m54.355103 19.552738q-0.59375 7.46875 -3.4375 16.875q-2.828125 9.40625 -4.015625 15.375l0 3.59375q0 4.171875 -0.609375 8.953129q-0.59375 4.78125 -1.1875 9.109375q-0.59375 4.328125 -1.34375 7.625q-0.75 3.28125 -0.75 4.46875q-0.296875 1.5 -0.296875 7.171875q0 5.671875 0 15.234375l0 3.578125q0 5.96875 -0.59375 10.453125q-0.59375 4.484375 -1.5 8.062492l2.6875 22.40625q1.203125 3.28125 8.0625 9.859375q-1.484375 5.375 -7.765625 9.703125q-6.265625 4.328125 -12.84375 4.328125q-8.953125 0 -13.59375 -8.515625q-4.625 -8.515625 -4.625 -28.515625q0 -3.296875 0.453125 -5.671875q0.453125 -2.390625 0.453125 -5.9843674q0 -7.15625 -1.796875 -17.921875q1.5 -3.28125 2.234375 -8.359375q0.75 -5.078125 1.046875 -9.703125q0.296875 -4.625 0.296875 -7.90625q0 -3.296875 0 -2.6875q0 0.296875 0.75 -4.1875q0.75 -4.484375 1.640625 -10.59375q0.90625 -6.125004 1.640625 -12.687504q0.75 -6.578125 0.75 -10.46875l0 -2.390625l5.078125 -25.078125q3.890625 -6.578125 13.4375 -6.578125q10.453125 0 15.828125 10.453125zm91.99106 16.421875q0.59375 2.390625 0.59375 4.484375q0 9.5625 -5.671875 16.125q-8.953125 3.59375 -17.921875 3.59375q-5.671875 -3.59375 -9.40625 -8.21875q-3.734375 -4.625 -3.734375 -9.109375q0 -3.890625 8.96875 -19.109375q3.875 0.59375 8.203125 0.890625q4.34375 0.296875 8.0625 1.5q3.734375 1.1875 6.578125 3.4375q2.84375 2.234375 4.328125 6.40625zm-9.5625 49.875004l0 3.890625q0 1.484375 0 3.28125q0 1.796875 -0.59375 3.28125l-2.390625 13.4375l0 2.6875q0 1.796875 -0.296875 4.78125q-0.296875 2.984375 -0.75 5.984375q-0.4375 2.984375 -0.734375 5.6718674q-0.296875 2.6875 -0.296875 4.46875q0 1.5 0.140625 2.40625q0.15625 0.890625 0.15625 2.375q0 2.6875 -0.609375 5.828125q-0.59375 3.140625 -0.59375 7.015625q0 3.59375 0.90625 7.46875q-3.296875 13.4375 -13.75 13.4375q-14.625 0 -14.625 -27.46875q0 -9.265625 0.890625 -18.374992q0.890625 -9.109375 2.078125 -16.875q1.203125 -7.765625 2.546875 -13.578125q1.34375 -5.828125 2.25 -9.109375q4.46875 -6.578125 12.53125 -6.578125q7.765625 0 13.140625 5.96875zm133.20663 56.453117q-0.890625 9.25 -6.125 16.875q-5.21875 7.609375 -10.59375 15.375q-3.296875 2.6875 -9.421875 4.625q-6.109375 1.953125 -12.09375 3.140625q-5.96875 1.203125 -10.296875 1.796875q-4.328125 0.59375 -3.734375 0.59375q-2.9843597 0 -7.6249847 -1.046875q-4.625 -1.046875 -8.953125 -2.09375q-4.328125 -1.046875 -7.171875 -2.09375q-2.828125 -1.03125 -2.53125 -1.03125q-2.6875 -0.296875 -6.875 -1.9375q-4.171875 -1.65625 -7.90625 -3.890625q-3.734375 -2.234375 -6.5625 -4.765625q-2.84375 -2.546875 -2.84375 -4.9375q0 -2.390625 1.203125 -4.921875q1.1875 -2.546875 3.265625 -4.78125q2.09375 -2.25 4.328125 -3.59375q2.25 -1.34375 4.640625 -1.34375l20.609375 7.765625q5.671875 1.796875 11.1875 2.546875q5.5312347 0.734375 10.906235 0.734375q5.078125 0 9.109375 -1.9375q4.03125 -1.9375 6.125 -4.625l4.484375 -8.96875q-0.59375 -5.375 -4.328125 -8.359375q-3.734375 -2.984375 -9.265625 -5.0625q-5.515625 -2.09375 -11.796875 -3.8906174q-6.2656097 -1.796875 -11.64061 -4.78125l-12.84375 -8.0625q-6.28125 -8.0625 -6.578125 -24.796875q1.796875 -10.453125 8.96875 -16.71875q0.296875 -0.296875 3.875 -2.828125q3.59375 -2.546875 11.046875 -7.328129q1.203125 0 7.6249847 -0.59375q6.421875 -0.59375 17.765625 -1.796875q5.078125 0 24.796875 7.171879q3.875 3.890625 3.875 10.75q0 5.375 -2.546875 9.109375q-2.53125 3.734375 -7.3125 3.734375q-5.078125 0 -11.203125 -2.53125q-6.109375 -2.546875 -11.484375 -2.546875q-7.46875 0 -13.59375 1.34375q-6.1249847 1.34375 -6.1249847 6.125q0 6.875 5.9687347 8.359375q45.703125 10.15625 51.671875 41.218742zm111.99869 -78.24999q3.28125 2.6875 3.28125 9.859375q0 13.140625 -9.859375 13.140625l-1.1875 0q-4.484375 0.296875 -10.453125 0.75q-5.96875 0.4375 -13.4375 1.34375q-0.59375 4.765625 -1.203125 12.6875q-0.59375 7.90625 -0.59375 18.96875q0 0.890625 0.140625 1.796875q0.15625 0.890625 0.15625 2.078125l0 13.734367q0 4.78125 1.640625 7.625q1.65625 2.828125 4.03125 4.03125l8.375 2.6875q9.84375 3.28125 9.84375 11.9375q0 5.078125 -4.03125 8.96875q-4.03125 3.875 -10.296875 3.875q-1.796875 0 -6.125 -1.03125q-4.328125 -1.046875 -8.96875 -2.84375q-4.625 -1.796875 -8.65625 -4.484375q-4.03125 -2.6875 -5.515625 -5.96875q-3.296875 -6.875 -5.390625 -14.484375q-2.078125 -7.625 -2.078125 -15.984375q0 -9.249992 0.296875 -13.124992q0.296875 -3.890625 0.59375 -6.875q0.296875 -3.0 0.59375 -7.171875q0.3125 -4.1875 0.3125 -13.734375q-5.6875 0.59375 -16.734375 3.578125q-6.5625 0 -11.203125 -3.4375q-4.625 -3.4375 -4.625 -9.109375q0 -4.171875 2.53125 -7.75q2.546875 -3.59375 10.609375 -6.28125q2.6875 -0.890625 4.921875 -1.1875q2.25 -0.3125 4.484375 -0.609375q2.25 -0.296875 4.9375 -0.4375q2.6875 -0.15625 6.5625 -0.75q0.296875 -7.468754 1.046875 -16.875004q0.75 -9.40625 2.6875 -17.46875q1.9375 -8.0625 5.671875 -13.59375q3.734375 -5.53125 10.015625 -5.53125q10.75 0 13.140625 9.859375q0 0.296875 -0.75 4.03125q-0.75 3.734375 -1.65625 8.21875q-0.890625 4.46875 -1.640625 8.65625q-0.734375 4.1875 -0.734375 5.375l-0.90625 14.640625q2.09375 -0.296875 3.890625 -0.453125q1.796875 -0.15625 3.875 -0.15625l2.6875 0q2.09375 0 3.890625 -0.140625q1.796875 -0.15625 3.28125 -0.15625q8.96875 0 12.546875 1.7968788zm133.49307 100.64062q-9.546875 9.5625 -21.5 16.28125q-11.9375 6.71875 -24.1875 6.71875q-11.046875 0 -28.375 -3.578125q-5.96875 -3.890625 -11.953125 -9.40625q-5.96875 -5.53125 -10.75 -12.25q-4.765625 -6.71875 -7.765625 -14.625q-2.984375 -7.921875 -2.984375 -16.28125q0 -2.390625 0.296875 -6.4218674q0.296875 -4.03125 0.75 -8.0625q0.453125 -4.03125 0.75 -7.015625q0.296875 -3.0 0.296875 -3.0q5.96875 -9.546875 12.6875 -18.953125q6.71875 -9.40625 18.96875 -16.578125q19.421875 -4.1875 28.078125 -4.1875q4.484375 0 7.765625 0.453125q3.28125 0.453125 6.40625 1.796875q3.140625 1.34375 6.28125 4.03125q3.140625 2.6875 7.3125 6.859375q4.78125 5.078125 7.609375 6.875q2.84375 1.796875 2.84375 3.28125q0 27.484375 -17.015625 37.328125q-7.46875 2.6874924 -19.421875 5.8281174q-11.9375 3.140625 -32.546875 5.828125q4.1875 11.34375 11.046875 17.03125q6.875 5.671875 15.53125 5.671875q12.84375 0 32.265625 -15.234375q2.984375 -2.6875 7.453125 -2.6875q4.78125 0 8.515625 3.578125q3.734375 3.578125 3.734375 8.953125q0 3.890625 -2.09375 7.765625zm-33.75 -63.906242q-5.671875 -9.25 -13.4375 -9.25q-3.28125 0 -7.171875 0.890625q-3.875 0.890625 -7.90625 2.53125q-4.03125 1.640625 -7.46875 4.03125q-3.4375 2.390625 -5.515625 5.6875l-3.0 8.953125q10.15625 -0.890625 17.921875 -1.484375q7.765625 -0.609375 13.4375 -1.796875q5.6875 -1.203125 8.96875 -3.28125q3.28125 -2.09375 4.171875 -6.28125zm170.24207 42.703117l0 2.390625q0 1.796875 0.140625 6.421875q0.15625 4.625 -0.890625 9.40625q-1.046875 4.78125 -4.03125 8.515625q-2.984375 3.734375 -8.953125 3.734375q-11.65625 0 -13.75 -9.265625q0.3125 -1.78125 0.3125 -4.015625q0 -2.25 0 -4.9375q0 -1.1875 0 -8.796875q0 -7.625 -0.453125 -16.578125q-0.453125 -8.968742 -1.953125 -16.874992q-1.484375 -7.921875 -4.46875 -10.015625q-6.875 -4.78125 -12.25 -4.78125q-7.15625 0 -12.09375 4.34375q-4.921875 4.328125 -8.21875 16.859375q-0.296875 4.1875 -0.59375 9.421867q-0.296875 5.21875 -0.890625 11.78125q0 5.078125 0.296875 11.203125q0.296875 6.125 0.890625 13.890625q0 5.671875 -4.484375 9.40625q-4.46875 3.734375 -10.140625 3.734375q-4.484375 0 -7.171875 -2.390625q-2.6875 -2.390625 -4.03125 -6.265625q-1.34375 -3.890625 -1.796875 -8.359375q-0.4375 -4.484375 -0.4375 -8.96875q0 -3.28125 0.296875 -6.71875q0.296875 -3.4375 0.890625 -7.015625l2.390625 -28.671867l2.390625 -14.34375q-0.59375 -3.578125 -2.390625 -7.75q-1.796875 -4.1875 -1.796875 -6.578125q0 -5.078125 4.03125 -9.25q4.03125 -4.1875 10.015625 -4.1875q4.171875 0 6.265625 1.640625q2.09375 1.640625 6.875 7.90625q5.96875 -2.6875 9.546875 -3.421875q3.59375 -0.75 8.375 -0.75q15.515625 0 27.3125 7.3125q11.796875 7.3125 14.796875 24.34375q0.890625 6.265625 1.640625 10.453125q0.75 4.1875 1.34375 8.078125q0.59375 3.8749924 1.1875 8.203117q0.59375 4.328125 1.796875 10.890625zm151.42242 -2.078125q5.375 3.578125 5.375 8.65625q0 2.6875 -1.5 5.53125q-1.484375 2.828125 -3.875 5.078125q-2.390625 2.234375 -5.078125 3.734375q-2.6875 1.484375 -5.375 1.484375q-2.390625 -0.890625 -5.6875 -3.125q-3.28125 -2.25 -6.5625 -5.078125q-3.28125 -2.84375 -6.125 -6.421875q-2.828125 -3.59375 -4.328125 -7.171875l-2.09375 5.078125q-5.671875 10.75 -17.921875 20.296875q-14.921875 2.6875 -17.3125 2.6875q-5.671875 0 -13.734375 -1.78125l-16.4375 -11.65625q-10.75 -10.15625 -10.75 -27.765625q0 -6.2812424 1.9375 -13.890617q1.953125 -7.625 5.671875 -15.390625q3.734375 -7.765625 9.109375 -15.21875q5.390625 -7.46875 12.546875 -13.453125q8.671875 -3.28125 16.734375 -5.515625q8.0625 -2.25 12.234375 -2.84375q5.6875 -6.265629 13.453125 -6.265629q4.46875 0 7.90625 4.328125q3.4375 4.328129 5.96875 10.906254q2.546875 6.5625 4.03125 14.484375q1.5 7.90625 2.09375 15.078125l3.890625 15.828125q1.78125 7.46875 5.8125 12.843742q4.03125 5.375 10.015625 9.5625zm-45.40625 -33.156242q-0.59375 -0.296875 -4.46875 -18.8125q-1.5 0 -4.484375 0q-2.984375 0 -7.015625 1.640625q-4.03125 1.640625 -8.671875 5.671875q-4.625 4.03125 -8.796875 12.09375q-6.28125 11.65625 -6.28125 23.296867q5.078125 9.859375 15.828125 15.53125q3.28125 -0.890625 5.515625 -2.078125q2.25 -1.203125 4.046875 -3.296875q1.796875 -2.09375 3.4375 -5.21875q1.640625 -3.140625 3.734375 -7.921875q3.875 -6.8749924 5.515625 -12.093742q1.640625 -5.234375 1.640625 -8.8125zm175.61127 -77.65625q-0.890625 2.6875 -0.890625 10.453125q0 4.484375 0.140625 11.359375q0.15625 6.859375 0.15625 11.34375q0 4.187504 0 7.468754q0 3.28125 -0.59375 5.375q0.296875 1.1875 0.296875 2.6875q0 1.484375 0 3.28125q0 4.1875 -0.609375 10.609375q-0.59375 6.421875 -0.59375 8.8125q0 0.59375 0.15625 1.046875q0.15625 0.4375 0.15625 1.03125q-2.6875 16.125 -3.4375 29.124992q-0.75 12.984375 -2.09375 22.25q-1.34375 9.25 -4.484375 14.1875q-3.125 4.921875 -10.59375 4.921875q-6.28125 0 -11.0625 -2.984375l0 -2.09375q-8.953125 3.890625 -23.890625 3.890625q-9.84375 0 -18.0625 -3.578125q-8.21875 -3.59375 -14.1875 -10.015625q-5.96875 -6.421875 -9.265625 -15.078125q-3.28125 -8.671875 -3.28125 -18.812492q0 -5.6875 1.34375 -11.203125q1.34375 -5.53125 3.4375 -10.453125q2.09375 -4.9375 4.625 -8.96875q2.546875 -4.03125 4.9375 -6.71875q5.96875 -6.5625 17.3125 -11.9375q11.359375 -5.375 24.203125 -5.375q8.65625 0 17.609375 3.28125q0 -4.484375 0.453125 -10.750004q0.453125 -6.265625 1.046875 -14.640625l-1.203125 -20.296875q0 -1.5 -0.15625 -2.546875q-0.140625 -1.046875 -0.140625 -2.234375q0 -9.859375 2.53125 -14.9375q2.546875 -5.0781245 10.3125 -5.0781245q4.78125 0 7.609375 1.203125q2.84375 1.1875 4.484375 4.0312495q1.640625 2.828125 2.234375 8.0625q0.609375 5.21875 1.5 13.28125zm-30.75 71.390625q-5.984375 -4.1875 -14.640625 -4.1875q-6.265625 0 -10.609375 0.90625q-4.328125 0.890625 -7.3125 3.125q-2.984375 2.234375 -5.078125 5.96875q-2.09375 3.734375 -4.171875 9.109375q-1.796875 5.078125 -1.796875 9.5625q0 9.546867 6.71875 14.937492q6.71875 5.375 16.28125 5.375q8.359375 0 16.125 -5.984375q2.6875 -12.234375 3.734375 -17.156242q1.046875 -4.9375 1.046875 -8.515625q0 -3.296875 -0.3125 -6.125q-0.296875 -2.84375 -0.296875 -4.9375q0 -0.59375 0.15625 -1.03125q0.15625 -0.453125 0.15625 -1.046875zm178.58398 62.703117q-9.546875 9.5625 -21.5 16.28125q-11.9375 6.71875 -24.1875 6.71875q-11.046875 0 -28.375 -3.578125q-5.96875 -3.890625 -11.953125 -9.40625q-5.96875 -5.53125 -10.75 -12.25q-4.765625 -6.71875 -7.765625 -14.625q-2.984375 -7.921875 -2.984375 -16.28125q0 -2.390625 0.296875 -6.4218674q0.296875 -4.03125 0.75 -8.0625q0.453125 -4.03125 0.75 -7.015625q0.296875 -3.0 0.296875 -3.0q5.96875 -9.546875 12.6875 -18.953125q6.71875 -9.40625 18.96875 -16.578125q19.421875 -4.1875 28.078125 -4.1875q4.484375 0 7.765625 0.453125q3.28125 0.453125 6.40625 1.796875q3.140625 1.34375 6.28125 4.03125q3.140625 2.6875 7.3125 6.859375q4.78125 5.078125 7.609375 6.875q2.84375 1.796875 2.84375 3.28125q0 27.484375 -17.015625 37.328125q-7.46875 2.6874924 -19.421875 5.8281174q-11.9375 3.140625 -32.546875 5.828125q4.1875 11.34375 11.046875 17.03125q6.875 5.671875 15.53125 5.671875q12.84375 0 32.265625 -15.234375q2.984375 -2.6875 7.453125 -2.6875q4.78125 0 8.515625 3.578125q3.734375 3.578125 3.734375 8.953125q0 3.890625 -2.09375 7.765625zm-33.75 -63.906242q-5.671875 -9.25 -13.4375 -9.25q-3.28125 0 -7.171875 0.890625q-3.875 0.890625 -7.90625 2.53125q-4.03125 1.640625 -7.46875 4.03125q-3.4375 2.390625 -5.515625 5.6875l-3.0 8.953125q10.15625 -0.890625 17.921875 -1.484375q7.765625 -0.609375 13.4375 -1.796875q5.6875 -1.203125 8.96875 -3.28125q3.28125 -2.09375 4.171875 -6.28125z" fill-rule="nonzero"/><path fill="#ffb6c1" d="m1116.2714 165.53711q0 -7.46875 3.625 -10.609375q3.640625 -3.15625 8.859375 -3.15625q5.453125 0 9.1875 3.15625q3.734375 3.140625 3.734375 10.609375q0 7.375 -3.734375 10.734375q-3.734375 3.359375 -9.1875 3.359375q-5.21875 0 -8.859375 -3.359375q-3.625 -3.359375 -3.625 -10.734375zm106.97119 13.25q-15.796875 0 -27.859375 -6.515625q-12.0625 -6.515625 -18.796875 -19.859375q-6.71875 -13.34375 -6.71875 -33.624992q0 -21.25 7.09375 -34.75q7.109375 -13.515625 19.59375 -20.03125q12.5 -6.515629 28.40625 -6.515629q8.75 0 16.921875 1.765625q8.171875 1.765625 13.390625 4.4375l-5.328125 14.828129q-5.34375 -2.125 -12.34375 -3.828125q-6.984375 -1.71875 -13.078125 -1.71875q-12.15625 0 -20.21875 5.234375q-8.0625 5.234375 -12.078125 15.375q-4.0 10.140625 -4.0 24.984375q0 14.203117 3.890625 24.234367q3.90625 10.03125 11.640625 15.328125q7.75 5.28125 19.390625 5.28125q9.28125 0 16.75 -1.96875q7.484375 -1.984375 13.5625 -4.65625l0 15.796875q-5.875 3.0 -13.078125 4.59375q-7.203125 1.609375 -17.140625 1.609375zm158.76843 -60.859367q0 14.406242 -3.734375 25.734367q-3.734375 11.3125 -10.78125 19.109375q-7.046875 7.796875 -17.03125 11.90625q-9.984375 4.109375 -22.578125 4.109375q-11.75 0 -21.515625 -4.109375q-9.765625 -4.109375 -16.875 -11.90625q-7.09375 -7.796875 -11.0 -19.109375q-3.890625 -11.328125 -3.890625 -25.734367q0 -19.21875 6.515625 -32.71875q6.515625 -13.515625 18.625 -20.609375q12.125 -7.109379 28.875 -7.109379q16.015625 0 28.03125 7.156254q12.015625 7.15625 18.6875 20.671875q6.671875 13.5 6.671875 32.609375zm-89.046875 0q0 14.093742 3.734375 24.453117q3.75 10.34375 11.53125 16.015625q7.796875 5.65625 20.078125 5.65625q12.171875 0 20.015625 -5.65625q7.84375 -5.671875 11.578125 -16.015625q3.75 -10.359375 3.75 -24.453117q0 -13.984375 -3.75 -24.171875q-3.734375 -10.203125 -11.53125 -15.75q-7.78125 -5.5625 -20.171875 -5.5625q-18.25 0 -26.75 12.0625q-8.484375 12.0625 -8.484375 33.421875zm246.73853 -60.437504q19.328125 0 29.140625 10.093754q9.828125 10.09375 9.828125 32.40625l0 76.65624l-17.515625 0l0 -75.79687q0 -14.203125 -6.140625 -21.296875q-6.125 -7.109375 -18.1875 -7.109375q-16.984375 0 -24.671875 9.828125q-7.6875 9.8125 -7.6875 28.921875l0 65.45312l-17.609375 0l0 -75.79687q0 -9.515625 -2.734375 -15.8125q-2.71875 -6.296875 -8.109375 -9.4375q-5.390625 -3.15625 -13.609375 -3.15625q-11.640625 0 -18.6875 4.8125q-7.046875 4.796875 -10.203125 14.25q-3.140625 9.4375 -3.140625 23.21875l0 61.921867l-17.71875 0l0 -117.015625l14.296875 0l2.671875 16.546879l0.96875 0q3.515625 -6.078125 8.859375 -10.234375q5.34375 -4.171879 11.953125 -6.312504q6.625 -2.140625 14.09375 -2.140625q13.34375 0 22.359375 4.96875q9.03125 4.968754 13.09375 15.109379l0.953125 0q5.765625 -10.140625 15.796875 -15.109379q10.046875 -4.96875 22.0 -4.96875z" fill-rule="nonzero"/></g></svg>